<svg xmlns="http://www.w3.org/2000/svg" viewBox="0 0 938 419"><g stroke="#000" stroke-width=".1"><path d="M169.3 22c-41 5.2-76.3 22.1-104.4 50.1C52.2 84.8 50.3 86.9 46 93c-1.4 1.9-3.1 4.3-3.9 5.2-.8 1-2.7 3.9-4.1 6.5-1.5 2.6-3.8 6.6-5 8.8-3.4 5.8-7 13.3-7 14.5 0 .6-.4 1.8-.9 2.8-4 7.8-8.2 22.1-10.4 35.2-2.2 13.3-1 45 2.2 55.3.5 1.8 1.5 5.2 2.2 7.7s1.6 4.9 2.1 5.4c.4.6.8 2 .8 3.3 0 1.2.9 3.8 2 5.8s2 4 2 4.5c0 1.3 5 12 7.1 15 .9 1.4 2.9 4.7 4.4 7.5 1.6 2.7 3.1 5.2 3.4 5.5.4.3 2.3 2.9 4.4 5.8 11.9 16.8 31.2 33.7 53.2 46.7 32.9 19.4 74 27 111.9 20.5 32.7-5.5 65.4-23.5 85.7-47.1l5.4-6.4-6 5.1c-17.7 15.1-44.4 27.5-69 32-13.5 2.5-35.3 2.5-49.5 0-26.2-4.6-53.5-17-77-35.1-10.2-7.9-27.8-26-30.3-31.3-.5-1.2-1.4-2.2-1.9-2.2-.4 0-.8-.5-.8-1.2 0-.6-.7-1.9-1.6-2.9-2.6-2.9-13.3-23.4-13.8-26.4-.1-.5-.5-1.5-.8-2.1-.4-.6-2.2-6.7-4-13.5-3.1-12-3.2-13-3.2-32.4 0-21.5 1-27.8 7.1-45.5C70.3 83.2 129.9 39 190.5 36.3c10.5-.5 15.2-.2 31.5 2.2.8.1 3.5.8 6 1.4 2.5.7 5.2 1.5 6 1.6 3.5.8 15.7 5.8 24.2 10.1 9.1 4.6 15.5 8.6 23 14.6 6.7 5.2 3 .1-5.4-7.6-14.5-13.3-34.9-25.1-53.6-31-16.4-5.1-38.1-7.4-52.9-5.6z"/><path d="M214.8 51.7c.7.3 1.6.2 1.9-.1.4-.3-.2-.6-1.3-.5-1.1 0-1.4.3-.6.6zm-81.4 18.9c-1.8 1.4-1.8 1.5.4.4 1.2-.6 2.2-1.3 2.2-1.5 0-.8-.5-.6-2.6 1.1zm202.9-.9c4.2.2 11.2.2 15.5 0 4.2-.1.7-.3-7.8-.3s-12 .2-7.7.3zm-207.4 4c-1.3 1.6-1.2 1.7.4.4.9-.7 1.7-1.5 1.7-1.7 0-.8-.8-.3-2.1 1.3zm177.6 3.4c-.4.6-.5 1.2-.2 1.5.2.3.7-.2 1-1.1.7-1.7.1-2-.8-.4zm-2 4c-.4.6-.5 1.2-.2 1.5.2.3.7-.2 1-1.1.7-1.7.1-2-.8-.4zM108 90.5c-4.1 4.1-7.2 7.5-6.9 7.5.2 0 3.8-3.4 7.9-7.5s7.2-7.5 6.9-7.5c-.2 0-3.8 3.4-7.9 7.5zm193.2-3.7c-2.4 4.8-2.5 5.8-.3 2.3 1.2-1.8 2.1-3.7 1.9-4.2-.2-.4-.9.4-1.6 1.9zm-8.5 16.2c-1.5 2.8-2.4 5-2 5 .8 0 5.5-9.1 5-9.7-.2-.1-1.5 2-3 4.7zm-194.6-1.8c-1.4 2.3-1.4 2.3.8.4 2.2-2 2.5-2.6 1.3-2.6-.4 0-1.3 1-2.1 2.2zm-3 4.4c0 1.1.3 1.4.6.6.3-.7.2-1.6-.1-1.9-.3-.4-.6.2-.5 1.3zm193.5 5.1c-.6 1.4-.5 1.5.5.6.7-.7 1-1.5.7-1.8s-.9.2-1.2 1.2zm-4.1 7.4c-.4.6-.5 1.2-.2 1.5.2.3.7-.2 1-1.1.7-1.7.1-2-.8-.4zM84.7 123c-2.3 5.4-2.1 6.5.4 1.5 1-2.1 1.8-4.3 1.7-4.7-.2-.5-1.1 1-2.1 3.2zm197.8-.9c-.4.6-.5 1.2-.2 1.5.2.3.7-.2 1-1.1.7-1.7.1-2-.8-.4zm-2.9 5.6c-.6 1.4-.5 1.5.5.6.7-.7 1-1.5.7-1.8s-.9.2-1.2 1.2zm-2 4c-.6 1.4-.5 1.5.5.6.7-.7 1-1.5.7-1.8s-.9.2-1.2 1.2zm63.4.3c.6 1.1 1.3 2 1.6 2 .2 0 0-.9-.6-2s-1.3-2-1.6-2c-.2 0 0 .9.6 2zm3.1 5.8c0 .7 1.1 3 2.5 5s2.3 3 2 2.2-.9-2.3-1.2-3.3c-.4-.9-1-1.7-1.4-1.7-.5 0-1.1-.8-1.3-1.8-.3-.9-.5-1.1-.6-.4zm-74.3 7.8c-1 1.9-1.4 3.4-1 3.4.8 0 3.6-5.9 3.1-6.5-.2-.1-1.2 1.2-2.1 3.1zm-3.2 6.1c-.6 1.4-.5 1.5.5.6.7-.7 1-1.5.7-1.8s-.9.2-1.2 1.2zm88.4 5.9c0 .6 1.1 3.3 2.5 6s2.5 4.4 2.5 3.8-1.1-3.3-2.5-6-2.5-4.4-2.5-3.8zm-92.5 1.5c-.4.6-.5 1.2-.2 1.5.2.3.7-.2 1-1.1.7-1.7.1-2-.8-.4zm-3.3 5.9c-1.8 2.9-1.5 3.8.4 1.2.9-1.3 1.4-2.5 1.2-2.7s-.9.5-1.6 1.5zm-5.7 10c-.3.5-.1 1 .4 1 .6 0 1.1-.5 1.1-1 0-.6-.2-1-.4-1-.3 0-.8.4-1.1 1zm112.2 3.7c.3 1 1.5 3 2.5 4.5 1 1.4 1.8 3 1.8 3.5 0 .4 1 1.9 2.1 3.3 1.4 1.8 1.2 1-.7-2.5-1.5-2.8-3.4-6.2-4.1-7.8-1.6-3-2.6-3.6-1.6-1zm-114 0c-2.5 4.2-5.7 10.6-4.9 9.8 1.3-1.3 6.4-10.5 5.8-10.5-.3 0-.7.3-.9.7zm-7.1 13c-.6 1.4-.5 1.5.5.6.7-.7 1-1.5.7-1.8s-.9.2-1.2 1.2zm-2.1 3.4c-.4.6-.5 1.2-.2 1.5.2.3.7-.2 1-1.1.7-1.7.1-2-.8-.4zm134.2 4.6c.3 1 1.5 3 2.5 4.5 1 1.4 1.8 3 1.8 3.5 0 .4 1 1.9 2.1 3.3 1.4 1.8 1.2 1-.8-3-1.5-3-3.1-5.7-3.5-5.8-.5-.2-.8-1-.8-1.7 0-.8-.4-1.7-1-2-.6-.4-.7.1-.3 1.2zm-139.6 5.5c-2 4-2 4.1-.2 1.8 1.8-2.2 3.4-6 2.6-6-.2 0-1.3 1.9-2.4 4.2zm-7.4 13.5c-2.5 4.2-5.7 10.6-4.9 9.8 1.3-1.3 6.4-10.5 5.8-10.5-.3 0-.7.3-.9.7zm158 1.4c.4 1.3.8 1.8 1.1 1 .2-.7-.1-1.8-.6-2.3-.8-.8-.9-.4-.5 1.3zm4.3 7c0 1.3 3.2 7 3.7 6.5.3-.3-.4-2-1.6-3.8-1.1-1.8-2.1-3-2.1-2.7zm-169.4 4.6c-.6 1.4-.5 1.5.5.6.7-.7 1-1.5.7-1.8s-.9.2-1.2 1.2zm-2.1 3.4c-.4.6-.5 1.2-.2 1.5.2.3.7-.2 1-1.1.7-1.7.1-2-.8-.4zm-2.5 5c0 .5.5.7 1 .4.6-.3 1-.8 1-1.1 0-.2-.4-.4-1-.4-.5 0-1 .5-1 1.1zM90 253.9c0 .6.4 1.3 1 1.6s.7-.1.4-.9c-.7-1.8-1.4-2.1-1.4-.7zm214-.3c3.4.7 11 .9 11 .2 0-.5-2.8-.7-6.2-.7-3.5.1-5.6.3-4.8.5zm-211 5c0 .7 7.2 10.4 7.8 10.4.5 0-.8-2-4.5-6.8-1.8-2.4-3.3-4-3.3-3.6zm198.9 6.1c-1.3 1.6-1.2 1.7.4.4.9-.7 1.7-1.5 1.7-1.7 0-.8-.8-.3-2.1 1.3zm53.1 1.7c-12.2 3.4-20.3 10.4-28.1 24.2-1.5 2.7-1.9 5.4-1.9 12.1 0 7.7.3 9 2.6 12 4.3 5.7 9.4 7.6 18.9 7.1 6.4-.3 9.3-1 13.9-3.4 11.7-5.9 22.4-19 24.4-30.2 1-5.8.2-12.3-1.9-14.5-.8-.8-2.1-2.4-2.9-3.6-3.1-4.4-15.7-6.3-25-3.7zm17.3 5.6c2.7 3 2.8 3.7 2.4 9.4-.7 7.9-1.7 12.6-2.8 12.6-.5 0-.9.9-.9 2s-.3 2-.8 2c-.4 0-1.3 1.3-2 2.8-1.9 4.5-11.7 14.7-15.8 16.7-4.3 2-12.4 1.7-14.7-.6-4.7-4.7-4.8-11-.6-22.2 3.4-8.8 7.1-14.8 12.5-20.3 4.6-4.8 8.9-6.5 14.8-6 4.1.3 5.5.9 7.9 3.6zm390-4.5c-9.8 3-20.8 12.7-25.6 22.4-2.2 4.5-2.7 6.9-2.7 13 0 9.2 1.8 12.7 8.4 16.6 4.2 2.5 5.4 2.7 12.9 2.4 6.5-.3 9.4-1 13.9-3.2 14-6.9 24.8-22.5 24.8-35.7 0-3.4-2.5-9.4-5-12.2-4.2-4.6-17.5-6.2-26.7-3.3zm14 1.5c1 0 2.9 1.2 4.2 2.6 2.2 2.3 2.5 3.7 2.5 9.5 0 3.7-.5 8.1-1.1 9.6-2.9 7.1-6.2 13.1-9 16.3-1.7 1.9-3.7 4.5-4.6 5.7-2.1 3.1-9.2 6.3-14 6.3-3.2 0-4.8-.7-7.3-3-3.2-3-3.3-3.2-2.8-10.3 1.1-17.6 17.8-39.4 28.3-37.2 1.1.3 2.8.5 3.8.5zm-361.5-1.3c-7.1.2-12.8.7-12.8 1.1s.9.8 2.1.9c1.1.1 2.6.7 3.3 1.3 1.4 1.1 1 5.6-.5 6.6-.5.3-.9 1.3-.9 2.2s-.9 2.8-2 4.2-2 3-2 3.7-1.1 3.7-2.5 6.7-2.5 6-2.5 6.5c0 .6-.4 1.1-1 1.1-.5 0-1 .7-1 1.5s-.4 2.3-.9 3.3c-.5.9-1.7 3.5-2.8 5.7-1.5 3.2-2.7 4.3-6.1 5.3-2.3.8-4.2 1.8-4.2 2.3s10.1.9 23.4.9h23.4l3.7-7.1c2-3.9 3.4-7.3 3.1-7.7-.3-.3-2.2 1.1-4.2 3.2-1.9 2-5.8 4.8-8.5 6.2-4.3 2.1-6.1 2.4-12.7 2.2l-7.7-.3.1-3c.1-1.7 2.2-7.3 4.7-12.5 2.4-5.2 6.4-13.8 8.7-19 5-11.1 6.5-13 10.8-13.3 1.8-.1 3.2-.8 3.2-1.5 0-.6-.3-1.1-.7-1-.5.1-6.5.4-13.5.5zm60.5 0c-6.8.2-12.3.8-12.3 1.3s1.2 1 2.8 1.2c2.4.3 2.7.6 2.4 3.8-.2 1.9-1.4 5.7-2.7 8.5-3.7 7.9-8.1 17.6-10 22-5.1 11.9-5.3 12.2-10 13.4-9.3 2.3-4.6 3.1 19.3 3.1h23.7l1.6-2.8c.8-1.5 1.6-3 1.7-3.4.1-.5 1.1-2.4 2.3-4.4 1.1-2 1.8-3.9 1.5-4.1-.3-.3-2.9 1.6-5.7 4.1-6.8 6.1-10.6 7.6-19.4 7.6-8.9 0-10.5-1.2-7.9-6.2 1-1.8 1.9-3.5 1.9-3.8.9-3.4 15.8-35.4 17.1-36.8.7-.6 2.2-1.2 3.2-1.2 2.7 0 5.2-1 5.2-2.1 0-.5-.6-.8-1.2-.7-.7.1-6.8.4-13.5.5zm131.5.2c-6.6 1.4-16.8 7.1-21.8 12.3-7.1 7.3-11 15.9-11 24.4 0 5.7.4 7.2 2.6 10.1 5.5 7.2 16.4 9.4 29.4 5.7 3-.8 6.1-1.6 6.9-1.8 1.5-.3 8.6-12.6 7.3-12.6-.4 0-2.6 1.8-4.7 4.1-5.5 5.6-12.2 8.9-18.4 8.9-4.3 0-5.4-.5-8.6-3.6l-3.7-3.6.4-7.4c.9-13.5 10-27.7 21.3-33 5.7-2.7 9.2-3 13.9-1 4 1.7 6.6 5.1 6.6 8.8 0 4.7 1.4 3.8 4.1-2.8l2.7-6.4-3.7-1c-4.8-1.5-18.6-2.1-23.3-1.1zm41.1 2.3c-1 1.4-1.9 3-1.9 3.5 0 .4-.9 1.9-2 3.3-2.3 2.9-2.5 4-.7 4 .6 0 2.5-1.6 4.1-3.6 4.4-5.6 13.6-8.9 19-6.8 1.1.4 1.2 1 .6 2.2-1 1.8-8.1 17.3-10.7 23.2-.9 1.9-2.6 5.7-3.8 8.5-1.3 2.7-3 6.7-3.8 8.7-1.3 3-2.3 3.9-5.6 4.8-8.2 2.2-5.6 3.1 8.3 2.8 7.9-.2 13.7-.7 13.9-1.3.1-.5-1.1-1.2-2.8-1.5-2.1-.4-3.1-1.2-3.3-2.7-.2-1.2 4.1-11.9 9.5-23.8l9.8-21.7 5.3.5c6.5.7 8.2 2 8.2 6.3 0 5.3 1.6 4.8 4.1-1.4 1.3-3.1 2.4-6 2.4-6.4 0-.5-11-.9-24.4-1l-24.3-.3zm73.6-2.2c-8.2.3-12.3.8-11 1.3 6.6 2.7 6.7 2.4-4.2 25.5-2.9 6.3-5.3 11.8-5.3 12.3s-.4 1.7-.9 2.7c-.5.9-1.5 3-2.2 4.5-.9 2-2.4 3.1-5.6 3.9-2.4.5-4.3 1.4-4.3 1.9s5.9.9 13 .9c10.9 0 13-.2 13-1.5 0-.8-.8-1.5-1.9-1.5-1 0-2.4-.6-3-1.4-1.2-1.4-.6-3.1 4.8-15.1 1.6-3.3 4.1-8.9 5.7-12.5 7.3-16.2 8.7-18.4 12.2-19.1s4.9-1.5 3.5-2c-.4-.2-6.6-.2-13.8.1zm-197.5.5c0 .3 1.2 1 2.6 1.5 2.3.9 2.6 1.4 2 4.2-.3 1.7-1.7 5.4-3 8.2-6.1 13.2-8.6 18.7-8.6 19.2s-.8 2.4-4.3 10.4c-1.9 4.2-3.8 5.9-7.3 6.6-9 1.7-2.6 2.4 20.7 2.4 13.9 0 25-.3 24.6-.6-.3-.4.9-3.5 2.8-7s3-6.4 2.5-6.4-2.6 1.6-4.6 3.5c-6 5.9-10.2 7.5-19.2 7.5-11.1 0-11.5-.7-7-11 5.8-13.2 5.6-13 11.4-13 5.9 0 7.9 1.6 7.2 5.5-1.1 5.5 1.4 3.2 5.3-5 4.1-8.6 4.5-11.7 1.1-7.7-2.5 2.9-6.4 4.2-12.3 4.2-5.7 0-5.9-.5-2.6-7 1.2-2.5 3.1-6.6 4.1-9.3l1.8-4.7h8.4c7.2 0 8.7.3 10.5 2.1 1.6 1.6 2 2.9 1.6 5.6-.8 4.9 2 4.1 4.1-1.2.9-2.2 2-4.3 2.6-4.7s.7-.8.2-.8-.3-.7.4-1.5c1.1-1.3-1.4-1.5-21.9-1.5-12.7 0-23.1.2-23.1.5zm287.5.5c-.3.5.2 1 1.2 1s2.7.7 3.8 1.6c1.6 1.2 1.8 1.8.7 3.4-.6 1.1-1.2 2.6-1.2 3.3 0 .8-.9 2.2-1.9 3.1-1.1 1-2.3 3.2-2.7 4.9-.3 1.7-1 3.8-1.4 4.7-2.9 5.5-9 19-9 19.8 0 2.2-4.4 6.2-8.1 7.3-2.1.7-3.9 1.6-3.9 2.1 0 .4 4.8.8 10.6.8 7.9 0 10.5-.3 10.2-1.2-.3-.7-1.5-1.5-2.8-1.8-4.8-1.1-4.7-3.1 1.1-15.7 2.9-6.5 5.8-12.1 6.2-12.4.5-.3.8-.9.7-1.3s.7-2.9 1.9-5.6c2.1-4.9 2.1-5 4.1-3 1.1 1.1 2 2.9 2 3.9 0 1.1 1 3.9 2.1 6.3 1.2 2.3 2.6 5.4 3.2 6.8.5 1.4 1.3 3.3 1.8 4.2.5 1 .9 2.7.9 3.7 0 1.1.5 2.3 1 2.6.6.3 1 1.4 1 2.4s.9 3.9 2 6.5c1.7 3.7 2.6 4.6 4.6 4.6 2.2 0 3.6-2.3 14-23.5 11.3-23 14.3-27.5 18.5-27.5 1 0 2.1-.5 2.4-1 .4-.6-3-1-9.4-1-5.6 0-10.3.4-10.6 1-.3.5.2 1 1.2 1 4.5 0 5.5 4.5 2.4 10.7-1.1 2.1-2.7 5.6-3.6 7.8s-2.3 5.1-3.1 6.5-2.4 4.4-3.6 6.7c-1.2 2.4-2.4 4.3-2.7 4.3-.5 0-8.2-19.3-13.6-34l-1.3-3.5-9-.3c-5.5-.2-9.3.1-9.7.8zm78 .6c-4.3 2.3-9.2 8.1-9.9 11.8-1.1 5.7 0 7.7 10.3 19.6 4.3 4.9 4.3 10.7.1 14.7-3.5 3.3-7.9 4.4-12.4 3.2-5.5-1.5-6.8-3.1-7.4-8.8-.5-5.9-2.1-6.3-3.8-1-.5 1.9-1.5 4.5-2.1 5.9-1.5 3.3-.2 4.6 6.5 6.3 10.3 2.6 22.1-.3 28.8-7.1 3.5-3.6 3.8-4.5 3.8-10.2 0-6.9.4-6.3-8.1-15.4-6.5-6.9-7.1-11-2.4-15.7 2.5-2.4 3.8-2.9 7.8-2.9 6.4 0 9.8 3.1 9.8 9.1 0 2.1.3 3.8.8 3.6.9-.3 6-11.8 5.4-12.2-3.7-2.8-22.4-3.4-27.2-.9zm-773.9 5.5c1.6 2 3.1 3.4 3.3 3.2.3-.2-1-1.8-2.9-3.6l-3.4-3.2zm176.3-.4-2.4 2.8 2.8-2.4c2.5-2.3 3.2-3.1 2.4-3.1-.2 0-1.4 1.2-2.8 2.7zm-5.4 4.3c-.3.6.1.7.9.4 1.8-.7 2.1-1.4.7-1.4-.6 0-1.3.4-1.6 1zm-166.5.4c0 .4.7 1.4 1.5 2.2.8.9 1.5 1.1 1.5.6s-.7-1.5-1.5-2.2-1.5-.9-1.5-.6zm161.9 3.3c-1.3 1.7-1.3 1.7.6.3 1.1-.8 2.2-1.6 2.4-1.7q.3-.3-.6-.3c-.6 0-1.7.8-2.4 1.7zm-13.1 7.9c-3.8 2-3.6 2.8.2.9 1.7-.9 3-1.8 3-2 0-.7-.1-.6-3.2 1.1zM252 294c-.9.6-1 1-.3 1 .6 0 1.5-.5 1.8-1 .8-1.2.4-1.2-1.5 0zm-84.3 7.1c.7.7 1.5 1 1.8.7s-.2-.9-1.2-1.2c-1.4-.6-1.5-.5-.6.5zm54.1 2.6c.7.3 1.6.2 1.9-.1.4-.3-.2-.6-1.3-.5-1.1 0-1.4.3-.6.6zm-34 1c.7.3 1.6.2 1.9-.1.4-.3-.2-.6-1.3-.5-1.1 0-1.4.3-.6.6zm24.5 0c.9.2 2.5.2 3.5 0 .9-.3.1-.5-1.8-.5s-2.7.2-1.7.5z"/></g><path fill="gray" stroke="gray" stroke-width=".1" d="M184.8 36.7c.6.2 1.8.2 2.5 0 .6-.3.1-.5-1.3-.5s-1.9.2-1.2.5zM129.5 53c-.3.6.1.7.9.4 1.8-.7 2.1-1.4.7-1.4-.6 0-1.3.4-1.6 1zm-13 7c-3.9 2.6-2.5 2.6 1.7 0 1.8-1.1 2.9-2 2.3-2-.5 0-2.3.9-4 2zm-9.6 6.7c-1.3 1.7-1.3 1.7.6.3 1.1-.8 2.2-1.6 2.4-1.7q.3-.3-.6-.3c-.6 0-1.7.8-2.4 1.7zM92 78.5c-.7.9-1.1 1.7-.9 2 .3.2 1-.5 1.7-1.5 1.4-2.4 1-2.6-.8-.5zM84.5 86c-.3.5-.1 1 .4 1 .6 0 1.1-.5 1.1-1 0-.6-.2-1-.4-1-.3 0-.8.4-1.1 1zm-28.4 41.6c0 1.1.3 1.4.6.6.3-.7.2-1.6-.1-1.9-.3-.4-.6.2-.5 1.3zm-3.1 6.5c0 .5.5.7 1 .4.6-.3 1-.8 1-1.1 0-.2-.4-.4-1-.4-.5 0-1 .5-1 1.1zM43.2 174c0 1.4.2 1.9.5 1.2.2-.6.2-1.8 0-2.5-.3-.6-.5-.1-.5 1.3zm.9 31.2c-.1 1.6.4 2.8.9 2.8 1.2 0 1.2-.8 0-3.5-.8-1.8-.9-1.7-.9.7zm561.7 64.5c.7.3 1.6.2 1.9-.1.4-.3-.2-.6-1.3-.5-1.1 0-1.4.3-.6.6zM344 271c-.9.6-1 1-.3 1 .6 0 1.5-.5 1.8-1 .8-1.2.4-1.2-1.5 0zm128.5 0c-.3.6.1.7.9.4 1.8-.7 2.1-1.4.7-1.4-.6 0-1.3.4-1.6 1zm245 1.1c-.4.6-.5 1.2-.2 1.5.2.3.7-.2 1-1.1.7-1.7.1-2-.8-.4zm188.2 1.4c-.4.8-.3 1.6.1 1.9s.9-.4.9-1.5c.2-2.3-.3-2.5-1-.4zm-316.3 2.8-2.9 3.2 3-2.5c1.7-1.4 3.2-2.6 3.4-2.8.2-.1.2-.4-.1-.7-.2-.3-1.8 1-3.4 2.8zm-250.5-.6c-1.3 1.6-1.2 1.7.4.4.9-.7 1.7-1.5 1.7-1.7 0-.8-.8-.3-2.1 1.3zm297.6 2.3c-.3.5-.2 1 .4 1 .5 0 1.3-.5 1.6-1 .3-.6.2-1-.4-1-.5 0-1.3.4-1.6 1zm217 1.1c-.4.6-.5 1.2-.2 1.5.2.3.7-.2 1-1.1.7-1.7.1-2-.8-.4zm-447.9 2.5c-.4.9-.4 1.9-.1 2.2.2.3.7-.3 1.1-1.2s.4-1.9.1-2.2c-.2-.3-.7.3-1.1 1.2zm-72.7 1.1c-1.3 1.6-1.2 1.7.4.4s2.1-2.1 1.3-2.1c-.2 0-1 .8-1.7 1.7zM619 282c0 .5.5 1 1.1 1 .5 0 .7-.5.4-1-.3-.6-.8-1-1.1-1-.2 0-.4.4-.4 1zm92.5 3c-.3.5-.1 1 .4 1 .6 0 1.1-.5 1.1-1 0-.6-.2-1-.4-1-.3 0-.8.4-1.1 1zm-187 1.1c-.4.6-.5 1.2-.2 1.5.2.3.7-.2 1-1.1.7-1.7.1-2-.8-.4zm185.1 4c-1.2 2.3-1.2 2.8-.2 2 1.2-1.1 2.9-5.1 2.1-5.1-.2 0-1 1.4-1.9 3.1zM579.5 289c-.3.5-.1 1 .4 1 .6 0 1.1-.5 1.1-1 0-.6-.2-1-.4-1-.3 0-.8.4-1.1 1zm-1.9 4.7c-.6 1.4-.5 1.5.5.6.7-.7 1-1.5.7-1.8s-.9.2-1.2 1.2zm204.4.4c0 .5.5.7 1 .4.6-.3 1-.8 1-1.1 0-.2-.4-.4-1-.4-.5 0-1 .5-1 1.1zm-322 1c0 .5.5.7 1 .4.6-.3 1-.8 1-1.1 0-.2-.4-.4-1-.4-.5 0-1 .5-1 1.1zm276 1c0 .5.5.7 1 .4.6-.3 1-.8 1-1.1 0-.2-.4-.4-1-.4-.5 0-1 .5-1 1.1zM458.5 299c-.3.5-.1 1 .4 1 .6 0 1.1-.5 1.1-1 0-.6-.2-1-.4-1-.3 0-.8.4-1.1 1zm-161.6 2.7c-1.3 1.6-1.2 1.7.4.4s2.1-2.1 1.3-2.1c-.2 0-1 .8-1.7 1.7zm437.4 5.8c0 2.7.2 3.8.4 2.2.2-1.5.2-3.7 0-5-.2-1.2-.4 0-.4 2.8zm63.2-3.5c-.3.5-.1 1 .4 1 .6 0 1.1-.5 1.1-1 0-.6-.2-1-.4-1-.3 0-.8.4-1.1 1zm-402.9 1.5c-.3.8-.1 1.5.4 1.5.6 0 1-.7 1-1.5s-.2-1.5-.4-1.5-.6.7-1 1.5zm151.4 3.7c-1.2 2.2-1.2 2.2.6.6 1-1 1.5-2 1.2-2.4-.4-.3-1.2.5-1.8 1.8zm-256.5-.2c-.3.5-.1 1 .4 1 .6 0 1.1-.5 1.1-1 0-.6-.2-1-.4-1-.3 0-.8.4-1.1 1zm34.5.4c0 .8.4 1.7.9 2 .5.4.7-.3.4-1.4-.6-2.3-1.3-2.6-1.3-.6zm446.9 1.3-2.4 2.8 3-2.5c1.7-1.4 3.2-2.6 3.4-2.8.2-.1 0-.2-.6-.2-.5 0-2 1.2-3.4 2.7zm-378-1.2c-.1.3-.2.8-.3 1.2-.1.5-.5 1.5-1 2.3-.7 1.2-.6 1.3.4.3 1.3-1.2 2.3-4.3 1.4-4.3-.2 0-.5.2-.5.5zm215.7 1.2c-.6 1.4-.5 1.5.5.6.7-.7 1-1.5.7-1.8s-.9.2-1.2 1.2zm-95.1.3c-.3.5-.1 1 .4 1 .6 0 1.1-.5 1.1-1 0-.6-.2-1-.4-1-.3 0-.8.4-1.1 1zm-91.9 3.1c-1.2 2.3-1.2 2.8-.2 2 1.2-1.1 2.9-5.1 2.1-5.1-.2 0-1 1.4-1.9 3.1zm277.6-.1c0 1.4.2 1.9.5 1.2.2-.6.2-1.8 0-2.5-.3-.6-.5-.1-.5 1.3zm93.8.5c0 .8.4 1.5 1 1.5.5 0 .7-.7.4-1.5-.4-.8-.8-1.5-1-1.5s-.4.7-.4 1.5zm-512 2.6c-2.2 1.8-2.2 1.9-.3 1 1.2-.6 2.5-1.6 2.8-2.1.9-1.5.3-1.2-2.5 1.1zm-6.9 4.9c-1.3 1.1-1.9 2-1.4 2 .6 0 1.8-.9 2.8-2 2.3-2.5 1.7-2.5-1.4 0zm137.7-.3c1.2.2 3 .2 4 0 .9-.3-.1-.5-2.3-.4-2.2 0-3 .2-1.7.4zm22.5 0c.9.2 2.3.2 3 0 .6-.3-.1-.5-1.8-.5-1.6 0-2.2.2-1.2.5zm23.4 0c1.8.2 5 .2 7 0 2.1-.2.7-.4-3.2-.4-3.8 0-5.5.2-3.8.4zm16.1 0c.6.2 1.8.2 2.5 0 .6-.3.1-.5-1.3-.5s-1.9.2-1.2.5zm36.5 0c.9.2 2.3.2 3 0 .6-.3-.1-.5-1.8-.5-1.6 0-2.2.2-1.2.5zm184.5 0c1.2.2 3.2.2 4.5 0 1.2-.2.2-.4-2.3-.4s-3.5.2-2.2.4zm100 0c.7.3 1.6.2 1.9-.1.4-.3-.2-.6-1.3-.5-1.1 0-1.4.3-.6.6zm-537 10.9c-3.8 2-3.6 2.8.2.9 1.7-.9 3-1.8 3-2 0-.7-.1-.6-3.2 1.1zm-82 19.1c.7.3 1.6.2 1.9-.1.4-.3-.2-.6-1.3-.5-1.1 0-1.4.3-.6.6zm14 0c.7.3 1.6.2 1.9-.1.4-.3-.2-.6-1.3-.5-1.1 0-1.4.3-.6.6z"/><path fill="#555" stroke="#555" stroke-width=".1" d="M192.8 36.7c2.9.2 7.4.2 10 0s.2-.3-5.3-.3-7.6.1-4.7.3zm-15 1c.7.3 1.6.2 1.9-.1.4-.3-.2-.6-1.3-.5-1.1 0-1.4.3-.6.6zm36 0c.7.3 1.6.2 1.9-.1.4-.3-.2-.6-1.3-.5-1.1 0-1.4.3-.6.6zm-42 1c.7.3 1.6.2 1.9-.1.4-.3-.2-.6-1.3-.5-1.1 0-1.4.3-.6.6zM155.5 42c-1.3.6-1.5.9-.5.9.8 0 2.2-.4 3-.9 1.8-1.2.2-1.2-2.5 0zm-44 21c-.3.6.1.7.9.4 1.8-.7 2.1-1.4.7-1.4-.6 0-1.3.4-1.6 1zM77.9 92.7c-1.3 1.7-1.3 1.7.6.3 1.1-.8 2.2-1.6 2.4-1.7q.3-.3-.6-.3c-.6 0-1.7.8-2.4 1.7zm-4.4 5.4c-.4.6-.5 1.2-.2 1.5.2.3.7-.2 1-1.1.7-1.7.1-2-.8-.4zm-3 3.9c-.3.5-.1 1 .4 1 .6 0 1.1-.5 1.1-1 0-.6-.2-1-.4-1-.3 0-.8.4-1.1 1zm471.6 22.6c0 1.1.3 1.4.6.6.3-.7.2-1.6-.1-1.9-.3-.4-.6.2-.5 1.3zm-495 27c0 1.1.3 1.4.6.6.3-.7.2-1.6-.1-1.9-.3-.4-.6.2-.5 1.3zm360.9 6.3c0 .6.4 1.3 1 1.6s.7-.1.4-.9c-.7-1.8-1.4-2.1-1.4-.7zM542.2 199c0 1.4.2 1.9.5 1.2.2-.6.2-1.8 0-2.5-.3-.6-.5-.1-.5 1.3zM49 227c0 .5.5 1 1.1 1 .5 0 .7-.5.4-1-.3-.6-.8-1-1.1-1-.2 0-.4.4-.4 1zm14 30.4c0 .2.8 1 1.8 1.7 1.5 1.3 1.6 1.2.3-.4s-2.1-2.1-2.1-1.3zm697.8 11.3c.7.3 1.6.2 1.9-.1.4-.3-.2-.6-1.3-.5-1.1 0-1.4.3-.6.6zm133 2c.7.3 1.6.2 1.9-.1.4-.3-.2-.6-1.3-.5-1.1 0-1.4.3-.6.6zm-483.9 2c-1.3 1.6-1.2 1.7.4.4.9-.7 1.7-1.5 1.7-1.7 0-.8-.8-.3-2.1 1.3zm-70 1c-1.3 1.6-1.2 1.7.4.4.9-.7 1.7-1.5 1.7-1.7 0-.8-.8-.3-2.1 1.3zm129.7 0c-.6 1.4-.5 1.5.5.6.7-.7 1-1.5.7-1.8s-.9.2-1.2 1.2zm87.4-.6c0 .5.5.7 1 .4.6-.3 1-.8 1-1.1 0-.2-.4-.4-1-.4-.5 0-1 .5-1 1.1zm190.7 2.7c-1.5 1.5-2.7 3.2-2.7 3.6 0 .7.9-.1 4.4-4.2 2.7-3.2 1.5-2.7-1.7.6zm-196.5.7c0 1.6.2 2.2.5 1.2.2-.9.2-2.3 0-3-.3-.6-.5.1-.5 1.8zm114.4-.8c-.6 1.4-.5 1.5.5.6.7-.7 1-1.5.7-1.8s-.9.2-1.2 1.2zM77.5 277c.3.5.8 1 1.1 1 .2 0 .4-.5.4-1 0-.6-.5-1-1.1-1-.5 0-.7.4-.4 1zm297.7 3c0 1.4.2 1.9.5 1.2.2-.6.2-1.8 0-2.5-.3-.6-.5-.1-.5 1.3zm91.4.6c-.5 1.4-.4 1.5.9.4 1.7-1.4 1.9-2 .6-2-.5 0-1.2.7-1.5 1.6zm-2 4.1c-.6 1.4-.5 1.5.5.6.7-.7 1-1.5.7-1.8s-.9.2-1.2 1.2zM330.5 286c-.3.5-.1 1 .4 1 .6 0 1.1-.5 1.1-1 0-.6-.2-1-.4-1-.3 0-.8.4-1.1 1zm330.8.5c0 .8.4 1.2.9.9s.6-1 .3-1.5c-.9-1.3-1.2-1.1-1.2.6zm-286.7 3c-.3.8-.1 1.5.4 1.5.6 0 1-.7 1-1.5s-.2-1.5-.4-1.5-.6.7-1 1.5zm148.5.1c0 1.1.3 1.4.6.6.3-.7.2-1.6-.1-1.9-.3-.4-.6.2-.5 1.3zm136 2c0 1.1.3 1.4.6.6.3-.7.2-1.6-.1-1.9-.3-.4-.6.2-.5 1.3zm-118.8.9c0 .8.4 1.2.9.9s.6-1 .3-1.5c-.9-1.3-1.2-1.1-1.2.6zm261.3 2.2c-.6 1.4-.5 1.5.5.6.7-.7 1-1.5.7-1.8s-.9.2-1.2 1.2zm-343 3c-.6 1.4-.5 1.5.5.6.7-.7 1-1.5.7-1.8s-.9.2-1.2 1.2zm246 2c-.6 1.4-.5 1.5.5.6.7-.7 1-1.5.7-1.8s-.9.2-1.2 1.2zm-407.7 1c-1.3 1.6-1.2 1.7.4.4.9-.7 1.7-1.5 1.7-1.7 0-.8-.8-.3-2.1 1.3zm99.8-.2c-.4.8-.2 1.7.3 2 .6.4 1-.3 1-1.4 0-2.5-.6-2.7-1.3-.6zm444.9.2c-.6 1.4-.5 1.5.5.6.7-.7 1-1.5.7-1.8s-.9.2-1.2 1.2zm-64.1 1.2c-.3.5-.1 1.2.5 1.6.5.3 1-.1 1-.9 0-1.8-.6-2.1-1.5-.7zm-74.6 1.8c-1.3 1.6-1.2 1.7.4.4.9-.7 1.7-1.5 1.7-1.7 0-.8-.8-.3-2.1 1.3zm-187.2 1.8c-.4.8-.2 1.7.2 2 .5.2 1.1-.4 1.4-1.5.6-2.3-.8-2.7-1.6-.5zm135.9 1.2c-.6 1.4-.5 1.5.5.6.7-.7 1-1.5.7-1.8s-.9.2-1.2 1.2zm49.7.8c-.3.9-.3 1.8-.1 2.1.3.3.8-.4 1.1-1.6.6-2.3-.1-2.7-1-.5zm-249.7 6c-.9 2.6-.7 3.2.5 1.2.6-1 .9-2.1.6-2.3-.2-.3-.7.2-1.1 1.1zm30.9-.5c-.3.5-.1 1 .4 1 .6 0 1.1-.5 1.1-1 0-.6-.2-1-.4-1-.3 0-.8.4-1.1 1zm-156.9 1.3c.3 1 .9 1.5 1.2 1.2s0-1.1-.7-1.8c-1-.9-1.1-.8-.5.6zm563.6-.1c-.7.7-1.2 1.6-1.2 2.1s.7.1 1.6-.8 1.4-1.8 1.2-2c-.2-.3-1 .1-1.6.7zm-191.2.7c0 .6.4 1.3 1 1.6s.7-.1.4-.9c-.7-1.8-1.4-2.1-1.4-.7zm137 .2c0 .5.5.7 1 .4.6-.3 1-.8 1-1.1 0-.2-.4-.4-1-.4-.5 0-1 .5-1 1.1zm26-.2c0 .6.4 1.3 1 1.6s.7-.1.4-.9c-.7-1.8-1.4-2.1-1.4-.7zm-97.6 1.7c-1.8 1.4-1.8 1.5.4.4 1.2-.6 2.2-1.3 2.2-1.5 0-.8-.5-.6-2.6 1.1zM351 318c-.8.5-1 1-.5 1 .6 0 1.7-.5 2.5-1s1.1-1 .5-1c-.5 0-1.7.5-2.5 1zm533.4.6c-1.8 1.4-1.8 1.5.4.4 1.2-.6 2.2-1.3 2.2-1.5 0-.8-.5-.6-2.6 1.1zm-495.2 3.1c3.7.2 10 .2 14 0 4-.1 1-.3-6.7-.3s-11 .1-7.3.3zm54.6 0c1.2.2 3 .2 4 0 .9-.3-.1-.5-2.3-.4-2.2 0-3 .2-1.7.4zm8 0c.6.2 1.8.2 2.5 0 .6-.3.1-.5-1.3-.5s-1.9.2-1.2.5zm17.5 0c.9.2 2.3.2 3 0 .6-.3-.1-.5-1.8-.5-1.6 0-2.2.2-1.2.5zm34.5 0c1.2.2 3 .2 4 0 .9-.3-.1-.5-2.3-.4-2.2 0-3 .2-1.7.4zm15 0c2.8.2 7.6.2 10.5 0 2.8-.2.5-.3-5.3-.3s-8.1.1-5.2.3zm122.5 0c1.5.2 3.7.2 5 0 1.2-.2 0-.4-2.8-.4-2.7 0-3.8.2-2.2.4zm9.5 0c.7.3 1.6.2 1.9-.1.4-.3-.2-.6-1.3-.5-1.1 0-1.4.3-.6.6zm31 0c.6.2 1.8.2 2.5 0 .6-.3.1-.5-1.3-.5s-1.9.2-1.2.5zm7.5 0c.9.2 2.3.2 3 0 .6-.3-.1-.5-1.8-.5-1.6 0-2.2.2-1.2.5zm-355.5 1c.7.3 1.6.2 1.9-.1.4-.3-.2-.6-1.3-.5-1.1 0-1.4.3-.6.6zm249.5 0c.9.2 2.3.2 3 0 .6-.3-.1-.5-1.8-.5-1.6 0-2.2.2-1.2.5zm160.5 0c.6.2 1.8.2 2.5 0 .6-.3.1-.5-1.3-.5s-1.9.2-1.2.5zm124.5 0c.9.2 2.5.2 3.5 0 .9-.3.1-.5-1.8-.5s-2.7.2-1.7.5zM263.5 329c-.3.5-.1 1 .4 1 .6 0 1.1-.5 1.1-1 0-.6-.2-1-.4-1-.3 0-.8.4-1.1 1zm-22.1 11.6c-1.8 1.4-1.8 1.5.4.4 1.2-.6 2.2-1.3 2.2-1.5 0-.8-.5-.6-2.6 1.1zM237 342c-.9.6-1 1-.3 1 .6 0 1.5-.5 1.8-1 .8-1.2.4-1.2-1.5 0zm-17.2 5.7c.7.3 1.6.2 1.9-.1.4-.3-.2-.6-1.3-.5-1.1 0-1.4.3-.6.6zm-11 2c.6.2 1.8.2 2.5 0 .6-.3.1-.5-1.3-.5s-1.9.2-1.2.5zm-7 1c.6.2 1.8.2 2.5 0 .6-.3.1-.5-1.3-.5s-1.9.2-1.2.5zm-23 1c.7.3 1.6.2 1.9-.1.4-.3-.2-.6-1.3-.5-1.1 0-1.4.3-.6.6z"/><path fill="#aaa" stroke="#aaa" stroke-width=".1" d="M103.5 69c-.3.6.1.7.9.4 1.8-.7 2.1-1.4.7-1.4-.6 0-1.3.4-1.6 1zm-59 95c-.3.5-.1 1 .4 1 .6 0 1.1-.5 1.1-1 0-.6-.2-1-.4-1-.3 0-.8.4-1.1 1zm-1.1 23c0 6.3.1 8.9.3 5.7.2-3.1.2-8.3 0-11.5-.2-3.1-.3-.5-.3 5.8zM884 272c-.9.6-1 1-.3 1 .6 0 1.5-.5 1.8-1 .8-1.2.4-1.2-1.5 0zm21.5 3.1c-.4.6-.5 1.2-.2 1.5.2.3.7-.2 1-1.1.7-1.7.1-2-.8-.4zm-267 .9c-.3.6.1.7.9.4 1.8-.7 2.1-1.4.7-1.4-.6 0-1.3.4-1.6 1zm-82.9 1.5c-.9 2.6-.7 3.2.5 1.2.6-1 .9-2.1.6-2.3-.2-.3-.7.2-1.1 1.1zm108 4.2c-.6 1.4-.5 1.5.5.6.7-.7 1-1.5.7-1.8s-.9.2-1.2 1.2zm44.1 12c-.4.3-.7 1.1-.7 1.7s.5.5 1.2-.2c.6-.6.9-1.4.7-1.7-.3-.3-.9-.2-1.2.2zm-308.1 2c-.6 1.4-.5 1.5.5.6.7-.7 1-1.5.7-1.8s-.9.2-1.2 1.2zm121.3 0c-1.3 1.6-1.2 1.7.4.4.9-.7 1.7-1.5 1.7-1.7 0-.8-.8-.3-2.1 1.3zm-194.2 0c-.4.3-.7 1.1-.7 1.7s.5.5 1.2-.2c.6-.6.9-1.4.7-1.7-.3-.3-.9-.2-1.2.2zM538 298c-.6 1.1-.8 2-.6 2 .3 0 1-.9 1.6-2s.8-2 .6-2c-.3 0-1 .9-1.6 2zm302.6 5.7c-.6 1.4-.5 1.5.5.6.7-.7 1-1.5.7-1.8s-.9.2-1.2 1.2zm-516.2.8c-.3.8-.4 2-.2 2.7.3.7.7.1 1-1.5.6-2.9.1-3.6-.8-1.2zm250.9 2c0 2.2.2 3 .4 1.7.2-1.2.2-3 0-4-.3-.9-.5.1-.4 2.3zM419 319.2c-1.2 2.2-1.2 2.2.6.6 1-1 1.5-2 1.2-2.4-.4-.3-1.2.5-1.8 1.8zm414 0c-1.2 2.2-1.2 2.2.6.6 1-1 1.5-2 1.2-2.4-.4-.3-1.2.5-1.8 1.8z"/><g fill="#050" stroke="#050" stroke-width=".1"><path d="M183 52.5c-12.4 1.9-34.8 9.4-32.3 10.7.4.3.2.3-.6.1-1.7-.4-14.2 5.7-13.6 6.7.2.4-.2.7-1 .7-1.9 0-8.5 4.6-7.9 5.5.3.4-.1.5-.9.2s-2 .3-2.8 1.2c-1.2 1.6-1.2 1.7.4 1.1 1.1-.4 1.6-.3 1.2.4-.4.5-1.5.9-2.5.7-2.3-.4-10.3 6-9.3 7.4.3.6.2.8-.4.5-1.5-.9-13.6 12-12.7 13.4q.6 1.05-.3.6c-1.7-1.1-4.6 2.9-3.8 5.2.4 1.2.2 2.1-.4 2.1s-1.1-.5-1.1-1.2c0-1.9-2.9 2.5-3 4.4 0 1-.4 1.8-.8 1.8-.7 0-4.2 5.2-4.2 6.2 0 .3 4.4-3.8 9.8-9.1 10.1-9.9 15.8-15.1 16.7-15.1.3 0 2.7-1.6 5.3-3.4 2.6-1.9 6-4 7.6-4.5 1.5-.6 2.4-1.6 2.1-2.1-.4-.6-.3-.9.2-.8 1.3.4 7.3-2.3 7.3-3.3 0-.5.3-.8.8-.8.4.1.9 0 1.2-.1s1.4-.3 2.4-.5c1.1-.2 4.4-1.5 7.5-2.9 5.5-2.4 17.2-5.4 32.1-8.2 8.4-1.6 26.2-1.6 36-.1 3.6.5 10.3 2.1 15 3.4 4.7 1.4 9 2.6 9.5 2.8.6.1 3.5 1.4 6.5 2.8 3 1.5 6.1 2.7 6.8 2.7.6 0 1.2.3 1.2.8 0 .4 2 1.8 4.4 3.2 4.4 2.3 4.6 2.4 6.5.6 1.1-1 2.3-2.7 2.6-3.7.4-1.1 1.2-1.9 1.9-1.9s1.8-1.2 2.4-2.6c1-2 .9-2.8-.2-4-.8-.8-1.9-1.4-2.5-1.4-.5 0-1.7-1-2.5-2.2-.9-1.2-1.6-1.9-1.6-1.5 0 .5-1.3-.1-3-1.3-1.6-1.2-3-1.8-3-1.5 0 .4-.7-.1-1.6-.9-.8-.9-2-1.3-2.6-1-.6.4-1.6 0-2.2-.8s-1.4-1.6-1.8-1.7-2.4-.9-4.3-1.7c-3.6-1.5-17.1-5.7-21.3-6.7-1.7-.4-2.2-.2-1.8.8.3.8 0 1.7-.6 2.1-.7.4-.8.3-.4-.4.4-.8 0-1.2-1.1-1.2-1.3 0-1.5-.2-.5-.9.8-.5-1.2-1-5.4-1.4s-7.2-.3-8 .4c-1.3 1.1-12.5.8-15.4-.3-.8-.3-5.3 0-10 .7zm9.7 1.3c.6.4-1.8.7-5.3.7s-5.6-.3-4.7-.7c2.4-.9 8.5-.9 10 0zm26.6.9c-.7.2-1.9.2-2.5 0-.7-.3-.2-.5 1.2-.5s1.9.2 1.3.5zm21.2 4c1.8 1.4 1.8 1.5.2.9-1-.3-2.3-.6-2.8-.6s-.9-.5-.9-1c0-1.4 1.2-1.2 3.5.7zm-79.8 1.6c0 .8-.6 1.4-1.4 1.4-1.7 0-1.7-1.4 0-2 .6-.3 1.2-.6 1.3-.6 0-.1.1.5.1 1.2zm62.6 5.4c-.7.2-1.9.2-2.5 0-.7-.3-.2-.5 1.2-.5s1.9.2 1.3.5zm-33 1c-1.3.2-3.3.2-4.5 0-1.3-.2-.3-.4 2.2-.4s3.5.2 2.3.4zm28.7.2c6.1 1.1.4 1.2-6.5.1-4.1-.6-4.4-.7-1.5-.8 1.9 0 5.5.3 8 .7zm-39.7.8c-.7.2-1.9.2-2.5 0-.7-.3-.2-.5 1.2-.5s1.9.2 1.3.5zm62 5c-.7.2-1.9.2-2.5 0-.7-.3-.2-.5 1.2-.5s1.9.2 1.3.5zm24.7 9.8c-2.1 2.2-2.3 2.2-5.1.7l-2.9-1.7 2.8-.6c1.5-.3 3.7-.6 5-.6l2.3-.1zM108.4 97.4c-1 .8-2.1 1.2-2.4 1-.5-.6 2.1-2.4 3.4-2.4.6 0 .1.6-1 1.4zM99 106c0 .5-.4 1-1 1-.5 0-1-.5-1-1 0-.6.5-1 1-1 .6 0 1 .4 1 1zm-4.7 4.5c-.3.9-.8 1.4-1 1.1-.3-.3-.2-.9.2-1.5.9-1.6 1.5-1.3.8.4z"/><path d="M263.7 81.7c-.4.3-.7 1.1-.7 1.7s.5.5 1.2-.2c.6-.6.9-1.4.7-1.7-.3-.3-.9-.2-1.2.2zm-64.9-30c1.7.2 4.7.2 6.5 0 1.7-.2.3-.4-3.3-.4s-5 .2-3.2.4zm112.5 17.9c-2.5 1.1-1.3 2 2.2 1.6 3-.4 3.4-.2 2.9 1.3-.5 1.1-1.5 1.5-3.1 1.2-2-.4-2.3-.1-1.8 1.7s.4 1.8-.8-.3c-1.4-2.4-1.8-2.2-3.1 1.3-.5 1.6-.4 1.7.9.6.8-.7 1.5-.8 1.5-.2 0 1.2-2.5 3.4-3.2 2.7-.2-.3-1.4 1.4-2.6 3.8-1.2 2.3-3.6 6.7-5.3 9.7-1.8 3.1-2.5 4.9-1.5 4.1.9-.8 2.5-3.2 3.5-5.5 1.1-2.3 1.9-3.4 2-2.6 0 2-4.2 10.4-5 9.9-1.3-.8-3.9 2.4-3.4 4.2.3.9 0 2.1-.6 2.5-.8.5-.9.3-.4-.6.6-.9.4-1.1-.4-.5-.7.4-1.1 1.5-.8 2.5.3 1.4.1 1.7-1.1 1.3-1.2-.5-1.4-.1-1 1.5.4 1.2.2 1.9-.3 1.6s-1.2.3-1.6 1.3-.9 2-1.2 2.3c-.5.5-5 9.1-6 11.5-1 2.7 1.9-1.5 4.3-6 1.4-2.7 2.6-4.4 2.6-3.8 0 .7-.9 2.9-2.1 4.9-1.1 2-1.8 4.3-1.5 5.1s.1 1.1-.4.8c-1.8-1.1-4.9 1.4-4.3 3.5.3 1.3.1 2-.6 1.8-.6-.2-1.9 1-2.9 2.7-.9 1.6-2 3.1-2.4 3.3-.5.2-.8.9-.8 1.5 0 .7-.7 2.5-1.5 4.1-.9 1.6-1.4 3.4-1.2 4 .3.6-.4 2.7-1.4 4.6-1.1 1.9-1.9 2.9-1.9 2.2s.7-2.4 1.6-3.7c1-1.5 1.2-2.5.5-2.5-.6 0-1.1.5-1.1 1.1s-1 2.4-2.1 4.1c-1.2 1.6-2.1 4-2.1 5.4 0 1.3-.4 2.1-.8 1.9-.5-.3-1.5.7-2.3 2.2-.7 1.6-2.3 4.4-3.5 6.5-1.1 2-1.8 4.5-1.5 5.6.2 1.1-.1 2.3-.8 2.8q-1.35.75-.6-.9c.3-1 .2-1.7-.3-1.7-1 0-1.4 2.1-1.1 4.8.1.7-.4 1.1-1.1 1-.8-.2-1.3.8-1.4 2.7-.1 3.8-1.3 7.5-2.5 7.5-1.4 0-1.1-2 .6-3.6.8-.9 1.5-2.1 1.5-2.7 0-.7-.9-.1-2 1.3-2 2.4-2 3.4-.5 7.5.5 1.1.5 1.7 0 1.3-.4-.4-1.7.9-2.7 3-2.6 4.9-3.8 6.1-3.8 3.8 0-1 .9-2.9 2-4.3s2-3.3 2-4.2-1.4.6-3 3.4c-1.7 2.7-2.8 5.8-2.6 6.8s-.5 3.7-1.7 5.9c-1.6 3-1.9 4.2-1 4.5.8.3.2 1.4-1.6 2.9-3.5 2.9-4.1 3-3.4.4.3-1.2 1.4-2 2.7-2 1.6 0 1.8-.2.7-.9-.8-.5-1-1.4-.6-2.2.6-1 .5-1.1-.3-.4-2.6 2.4-4 6.8-3.1 9.4.8 2.3.8 2.4-.5.8-1.3-1.7-1.5-1.6-2.8 1-.8 1.5-2.9 5.3-4.6 8.5-1.8 3.1-3.2 6.1-3.2 6.7 0 .8 7.8 1.1 26 1.1 17.9 0 26-.3 26-1.1 0-.6 1.7-4.1 3.9-7.7 6.6-11.4 16.2-30.2 15.4-30.2-.5 0-.3-.4.3-.8.7-.4 2.9-3.9 4.9-7.7 2.1-3.9 4.7-8.5 5.7-10.4 1.1-1.8 1.7-4 1.4-4.8-.4-.9-.2-1.1.6-.7.8.5.9-.2.4-2.2-.4-1.8-.3-2.4.2-1.6 1.1 1.6 2.3-.3 9.3-13.8 2.4-4.7 6-11.7 8.1-15.5 2-3.9 5.5-10.7 7.8-15.3 2.2-4.5 4.6-8.2 5.1-8.2.6 0 .8.4.5.9s.1 1.1.9 1.5c.9.3 1.2 1.2.9 2.1-.4.9.1 2.2 1.2 3s1.6 1.5 1.2 1.5c-.5 0 0 .8 1 1.8.9 1.1 2.1 1.7 2.6 1.4s.6 0 .2.7c-.8 1.3 1.4 7.1 2.7 7.1.4 0 .2-1-.4-2.3-1.1-2-1.1-2.1.5-.8 1 .8 1.4 2.1 1 3.3-.3 1 0 2.5.6 3.3s.9 1.8.6 2.4c-.3.5.1 1.2 1 1.5 1.2.5 1.4.1.9-1.7-.6-1.8-.5-2 .6-.9 1.1 1 1.1 1.6.1 3.2-.7 1.2-.8 2-.2 2 .5 0 1 .9 1 2s.5 2 1 2c.6 0 1 .7 1 1.5s.4 1.5 1 1.5c.5 0 .7-.8.3-1.8-.3-.9-.3-1.4.2-1 .4.4.8 2 .9 3.5.1 1.6.6 2.7 1.3 2.6.7-.2 1 .3.7 1-.2.7.2 2.7 1.1 4.3.8 1.6 1.5 3.5 1.5 4.1 0 .7.5 1.3 1 1.3.6 0 1 .7 1 1.5s.5 1.5 1 1.5c.6 0 1 .6 1 1.4s.4 1.7.9 2c.5.4.7-.4.5-1.6-.4-2.1-.4-2.1.4-.3.5 1.1.7 2.5.5 3.2-.6 1.5 2.7 6.4 3.8 5.7.5-.3.6.2.3 1s.1 2.5 1 3.8c.9 1.2 1.6 3 1.6 4s.4 1.8.8 1.8c.5 0 1.4 1.6 2.2 3.5s1.7 3.5 2.1 3.5.9.9 1.2 2.1c.4 1.3 1 1.8 1.8 1.3.8-.4 1-.3.5.5-.8 1.2 3.9 11.7 5.6 12.7.4.3.8 1.4.8 2.5 0 1 .5 1.9 1.1 1.9s.8-.9.4-2.3c-.5-1.7-.4-1.9.4-.7.6.8.8 2.3.5 3.2-.3 1 .6 3.4 2 5.5s2.6 4.4 2.6 5.1.7 2.4 1.6 3.7l1.6 2.5h25.9c25.2 0 25.9-.1 25.9-2 0-1.1-.4-2-.9-2s-1.2-.8-1.5-1.8c-1.3-3.3-4.3-8.1-4.8-7.6-.3.2-.4-.7-.2-2.2.1-1.4 0-2.3-.3-2-.7.7-6-8.2-9.7-16.1-1.4-2.9-3.6-6.8-5-8.6-1.4-1.9-2.6-3.8-2.6-4.3s-1.1-3-2.5-5.5c-1.3-2.6-2.1-5-1.7-5.4.4-.5.2-.5-.4-.2-.7.4-1.7-.6-2.5-2.6-.7-1.7-2.1-4.5-3.2-6-1-1.6-1.7-3.1-1.3-3.4.3-.3-.1-1.1-.8-1.7-.8-.6-3.5-5.1-6-9.9-2.5-4.9-5.3-9.8-6.1-11s-1.5-2.9-1.5-3.9-.3-1.8-.8-1.8c-.4 0-2.5-3.3-4.7-7.4s-4.4-7.2-4.9-6.9c-.5.4-.6.1-.3-.4.6-1-4.9-12-8.7-17.4-.9-1.3-1.6-3.1-1.6-4.1s-.4-1.8-.8-1.8-1.3-1.2-1.9-2.8c-.7-1.5-3.5-6.8-6.3-11.7-2.8-5-5.6-10.2-6.3-11.8-.6-1.5-1.4-2.7-1.8-2.7s-1-1.1-1.3-2.5c-.6-2.5-.7-2.5-11.9-2.5-6.1 0-16.8-.2-23.7-.5s-13.1-.2-13.7.1zm33 2.1c-4.6.2-12 .2-16.5 0-4.6-.1-.9-.3 8.2-.3s12.8.2 8.3.3zm13.7.8c0 .8-.9 1.5-2 1.5s-2-.7-2-1.5.9-1.5 2-1.5 2 .7 2 1.5zm12.3 23.6c-.6.6-1 .5-1.1-.3 0-.7-.3-2.4-.7-3.8-.6-2.3-.5-2.3 1 .4 1 1.7 1.3 3.2.8 3.7zM373 98c0 .5-.2 1-.4 1-.3 0-.8-.5-1.1-1-.3-.6-.1-1 .4-1 .6 0 1.1.4 1.1 1zm5.4 11.5c.3.8.1 1.5-.4 1.5-.6 0-1-.7-1-1.5s.2-1.5.4-1.5.6.7 1 1.5zm-37.4 17c0 .5-.5.3-1-.5s-1-2-1-2.5c0-.6.5-.3 1 .5s1 1.9 1 2.5zm-13.3 3c-.9 1.9-1.3 2.1-1.5.9-.3-1.3 1.2-3.3 2.5-3.4 0 0-.4 1.1-1 2.5zm-2.7.5c0 .5-.5 1-1.1 1-.5 0-.7-.5-.4-1 .3-.6.8-1 1.1-1 .2 0 .4.4.4 1zm-47 7c0 .5-.4 1-1 1-.5 0-1-.5-1-1 0-.6.5-1 1-1 .6 0 1 .4 1 1zm117.9 4.5c0 .5-.6.1-1.4-.9-.8-1.1-1.5-2.4-1.5-3 0-.5.7-.1 1.5 1 .8 1 1.4 2.3 1.4 2.9zm-80.7 10.7c-.7.7-1.2.8-1.2.2s.3-1.4.7-1.7c.3-.4.9-.5 1.2-.2.2.3-.1 1.1-.7 1.7zM263 164.5c0 .8-.4 1.5-1 1.5-.5 0-.7-.7-.4-1.5.4-.8.8-1.5 1-1.5s.4.7.4 1.5zm101.7 7.7c-.3.8-.6.5-.6-.6-.1-1.1.2-1.7.5-1.3.3.3.4 1.2.1 1.9zm50.3 3.4c0 .4-.9-.3-2-1.6s-2-2.7-2-3.3c0-.5.9.2 2 1.6s2 2.9 2 3.3zm5 8.9c-.1 1.7-4-3.6-4-5.4 0-1 .7-.6 2 1.4 1.1 1.6 2 3.4 2 4zm6.3 12.3c.5.7.7 1.5.3 1.9-.9 1-1.5 0-2-3.3-.2-1.6-.1-2.2.1-1.4.3.8 1 2.1 1.6 2.8zm-134-.3c-.3.9-.8 1.4-1 1.1-.3-.3-.2-.9.2-1.5.9-1.6 1.5-1.3.8.4zM434 210.6c0 .8-.4 1.2-1 .9-.5-.3-1-1-1-1.6 0-.5.5-.9 1-.9.6 0 1 .7 1 1.6zm6 9.4c0 .5-.2 1-.4 1-.3 0-.8-.5-1.1-1-.3-.6-.1-1 .4-1 .6 0 1.1.4 1.1 1zm-41.7 13.2c.6 2.2.5 2.2-.8.4-1.7-2.2-2-4-.6-3.2.5.3 1.1 1.6 1.4 2.8zm48.2-1.2c.3.5-.1 1-.9 1-.9 0-1.6-.5-1.6-1 0-.6.4-1 .9-1 .6 0 1.3.4 1.6 1zm-46.1 5.6c.3.8.2 1.2-.4.9s-1-1-1-1.6c0-1.4.7-1.1 1.4.7zm-160.7 1c-.3.3-1.2.4-1.9.1-.8-.3-.5-.6.6-.6 1.1-.1 1.7.2 1.3.5z"/><path d="M236.6 207.4c-2.3 3.6-2 4.4.5 1.2 1.2-1.5 1.9-2.9 1.6-3.2-.2-.2-1.2.7-2.1 2zm-145 48.1c.5 1.1 1.4 2.6 2.2 3.4.7.8 2 2.4 2.9 3.7.8 1.3 2 2.1 2.7 1.7.6-.3.8-.3.4.2-.4.4-.1 1.9.7 3.4 1.7 3.2 22 24.1 23.4 24.1.5 0 1.6.6 2.3 1.2 4.1 3.9 17.3 12 19.3 11.8.3 0 1.3.6 2.1 1.5.9.8 2.4 1.5 3.4 1.5s2.1.4 2.5.9c.3.5 1.9 1.2 3.5 1.6 1.7.4 4.3 1.3 5.8 2 1.5.8 4.1 1.6 5.7 1.9 1.7.2 3 .5 3 .6 0 .2 3.7 1.1 6 1.5 1.1.1 2.7.5 3.5.8 2.1.8 21.2 2.7 26.5 2.7 2.5 0 4.5-.4 4.5-.9 0-.4 2.8-.8 6.3-.8 3.4.1 9.1-.5 12.7-1.2 8.6-1.6 24.8-7 26.6-8.8.8-.8 1.4-1.2 1.4-.8 0 .8 11.7-5.3 15.6-8.2 1.7-1.3 3.5-2.3 4-2.3s3.1-2 5.8-4.5 5.1-4.5 5.3-4.5c1.1 0 4.1-3.5 3.6-4.3q-.45-.9.6-.3c.6.4 1.4.1 1.7-.8.3-.8 2.4-3.5 4.7-5.9 7.4-7.9 15.4-20.7 13.9-22.1-.3-.4-3.3-.6-6.7-.6-5.9 0-6.4.2-8.7 3.2-1.4 1.8-4 4.8-5.7 6.7-3.3 3.5-3.5 5.5-.4 3 1.6-1.3 1.7-1.2.4.4-.8 1-2 1.6-2.7 1.3-1.4-.5-3.7 1.7-2.7 2.7.3.4.1.7-.7.7-1.6 0-8 5.6-7.3 6.4.4.3-.1.6-1 .6s-2.9 1.2-4.5 2.7c-1.6 1.6-3.5 2.9-4.2 3.1s-3.4 1.7-6.1 3.5c-3.4 2.2-4.5 3.4-3.6 4q1.2.9-.6.3c-1.1-.3-3.3 0-5 .8-5.8 2.7-17 6.6-25.1 8.9-7 1.9-10.7 2.2-27.6 2.2-13.5 0-21.2-.4-24.9-1.4-3-.8-6.2-1.5-7-1.6-.9-.1-2.9-.7-4.6-1.4-1.6-.7-3.9-1.4-5-1.5s-3.5-1-5.2-1.9c-1.8-1-3.5-1.7-3.8-1.7-.3.1-3.2-1.1-6.5-2.6-3.2-1.4-6.2-2.5-6.5-2.4s-2.1-1-3.9-2.4c-1.9-1.4-3.6-2.2-4-1.9-.3.4-.6.1-.6-.6s-.4-1-1-.6c-.5.3-1.8-.3-3-1.5-1.1-1.1-2-1.8-2-1.5 0 .2-1.2-.7-2.6-2-1.5-1.4-3.3-2.5-3.9-2.5-.7 0-1.6-.7-1.9-1.6-.4-1-1.3-1.3-2.6-.9-1.1.4-1.9.2-1.8-.3.2-.5-2.2-3.2-5.2-6-3-2.9-7.7-7.3-10.3-9.9-2.8-2.8-4.5-4-4.1-2.8zm211.8 1c-.4.8-.8 1.5-1 1.5s-.4-.7-.4-1.5.4-1.5 1-1.5c.5 0 .7.7.4 1.5zm8.1.5c-.4.6-1.1.8-1.6.5-.5-.4-.9-.1-.9.4 0 .6-.4 1.1-1 1.1-.5 0-.7-.7-.4-1.5.4-.8 1.5-1.5 2.6-1.5 1 0 1.6.5 1.3 1zm-206.6 12.7c1.8 2 2 2.5.6 2-.9-.4-1.9-.7-2.1-.7s-.4-.6-.4-1.4-.6-1.7-1.2-1.9c-.7-.3-.8-.6-.2-.6.6-.1 2.1 1.1 3.3 2.6zm5.6 6.4c1.1 1.6.1 1.9-1.3.3-.7-.8-.8-1.4-.3-1.4s1.3.5 1.6 1.1zm165.2 7.5c-.3.3-1.2.4-1.9.1-.8-.3-.5-.6.6-.6 1.1-.1 1.7.2 1.3.5zm-132 11c-.3.3-1.2.4-1.9.1-.8-.3-.5-.6.6-.6 1.1-.1 1.7.2 1.3.5zM245 299c-.8.5-1.9 1-2.5 1-.5 0-.3-.5.5-1s2-1 2.5-1c.6 0 .3.5-.5 1zm-8 3.4c0 .2-1.3.6-2.9.8-1.7.2-2.8.1-2.5-.4.5-.8 5.4-1.2 5.4-.4zM177 314c1.8 1.2.2 1.2-2.5 0-1.3-.6-1.5-.9-.5-.9.8 0 2.2.4 3 .9zm51 2c-1.4.4-3.4.8-4.5.8-1.6 0-1.5-.2.5-.8 1.4-.4 3.4-.8 4.5-.8 1.6 0 1.5.2-.5.8z"/></g><path fill="green" stroke="green" stroke-width=".1" d="M194.3 52.2c1.6 1 13.4 1 14 0 .3-.4-3-.7-7.3-.7s-7.3.3-6.7.7zm-11.6 1.6c-.9.4 1.2.7 4.7.7s5.9-.3 5.3-.7c-1.5-.9-7.6-.9-10 0zm39.6-.1c.9.2 1.4.9 1.1 1.5-.4.7-.2.8.5.4 1.5-1 .4-2.6-1.7-2.5-1.5.1-1.5.2.1.6zm-5.5 1c.6.2 1.8.2 2.5 0 .6-.3.1-.5-1.3-.5s-1.9.2-1.2.5zM237 58c0 .5.4 1 .9 1s1.8.3 2.8.6c1.6.6 1.6.5-.2-.9-2.3-1.9-3.5-2.1-3.5-.7zm-77.7 1.7c-1.7.6-1.7 2 0 2 .8 0 1.4-.6 1.4-1.4 0-.7-.1-1.3-.1-1.2-.1 0-.7.3-1.3.6zm94.4 3.4c.7.7 1.5 1 1.8.7s-.2-.9-1.2-1.2c-1.4-.6-1.5-.5-.6.5zm-32.9 2.6c.6.2 1.8.2 2.5 0 .6-.3.1-.5-1.3-.5s-1.9.2-1.2.5zm-35 1c1.2.2 3.2.2 4.5 0 1.2-.2.2-.4-2.3-.4s-3.5.2-2.2.4zm26.7.3c6.9 1.1 12.6 1 6.5-.1-2.5-.4-6.1-.7-8-.7-2.9.1-2.6.2 1.5.8zm-35.7.7c.6.2 1.8.2 2.5 0 .6-.3.1-.5-1.3-.5s-1.9.2-1.2.5zm9 1c.6.2 1.8.2 2.5 0 .6-.3.1-.5-1.3-.5s-1.9.2-1.2.5zm124.6 3.7c-.3.8-.1 2.3.6 3.3 1 1.6 1 1.6.5-.3-.5-1.8-.2-2.1 1.8-1.7 1.6.3 2.6-.1 3-1.1.5-1.2 0-1.6-2.4-1.6-1.7 0-3.2.6-3.5 1.4zm17.4-.7c4.5.2 11.9.2 16.5 0 4.5-.1.8-.3-8.3-.3s-12.8.2-8.2.3zm26.2.8c0 .8.9 1.5 2 1.5s2-.7 2-1.5-.9-1.5-2-1.5-2 .7-2 1.5zm-115.2.2c.6.2 1.8.2 2.5 0 .6-.3.1-.5-1.3-.5s-1.9.2-1.2.5zm69.2 4.8c-.7.9-1.1 1.8-.8 2 .3.3 1.1-.1 1.8-1s1.1-1.8.8-2c-.3-.3-1.1.1-1.8 1zM123.5 79c-1.6.7-1.7.9-.3.9.9.1 2-.4 2.3-.9.7-1.1.7-1.1-2 0zm137.3 1.9-2.8.6 2.9 1.7c2.8 1.5 3 1.5 5.1-.7l2.1-2.3-2.3.1c-1.3 0-3.5.3-5 .6zm3.4 2.3c-.7.7-1.2.8-1.2.2s.3-1.4.7-1.7c.3-.4.9-.5 1.2-.2.2.3-.1 1.1-.7 1.7zm36.8 8c-.7 1.8-2.2 4.3-3.2 5.4-1.1 1.3-1.5 2.4-1 2.8.5.3 1.4 0 1.9-.7 1.6-2.1 4.6-9.7 4.1-10.2-.3-.3-1.1.9-1.8 2.7zm67.5.8c.4 1.4.7 3.1.7 3.8.1.8.5.9 1.1.3.5-.5.2-2-.8-3.7-1.5-2.7-1.6-2.7-1-.4zM107 97c-.8.5-1.2 1.1-1 1.4.3.2 1.4-.2 2.4-1 2.2-1.5 1-1.9-1.4-.4zm264.5 1c.3.5.8 1 1.1 1 .2 0 .4-.5.4-1 0-.6-.5-1-1.1-1-.5 0-.7.4-.4 1zm-77.9 6.7c-.6 1.4-.5 1.5.5.6.7-.7 1-1.5.7-1.8s-.9.2-1.2 1.2zm-198.3 3.1c-3.3 3.9-2.8 4.6.7 1.2 1.7-1.6 3-3.2 3-3.5 0-1.3-1.7-.3-3.7 2.3zm281.7 1.7c0 .8.4 1.5 1 1.5.5 0 .7-.7.4-1.5-.4-.8-.8-1.5-1-1.5s-.4.7-.4 1.5zm-89.9 7.2c-.1.7-1.4 3.4-2.9 6-2.5 4.2-2.7 4.9-1.2 4.9 1 0 1.6-.5 1.3-1.2-.2-.6.5-2.8 1.7-4.9 1.1-2 1.9-4.2 1.6-4.9-.3-.8-.5-.7-.5.1zm51.9 6.8c0 .5.5 1.7 1 2.5s1 1 1 .5c0-.6-.5-1.7-1-2.5s-1-1.1-1-.5zm-11.8 4.4c-.8.5-1.2 1.6-1 2.5.2 1.2.6 1 1.5-.9.6-1.4 1-2.5 1-2.5-.1 0-.8.4-1.5.9zm-47.9 2.6c-.3.9-.3 1.9.1 2.2.3.4.6-.1.6-1 0-.8.6-1.8 1.3-2 .9-.4.9-.6-.1-.6-.7-.1-1.5.6-1.9 1.4zm44.2-.5c-.3.5-.1 1 .4 1 .6 0 1.1-.5 1.1-1 0-.6-.2-1-.4-1-.3 0-.8.4-1.1 1zm-47.5 7c0 .5.5 1 1 1 .6 0 1-.5 1-1 0-.6-.4-1-1-1-.5 0-1 .4-1 1zm70 .8c.6 1.3 1.4 2.1 1.8 1.8.3-.4-.2-1.4-1.2-2.4-1.8-1.6-1.8-1.6-.6.6zm47-.2c0 .6.7 1.9 1.5 3 .8 1 1.4 1.4 1.4.9 0-.6-.6-1.9-1.4-2.9-.8-1.1-1.5-1.5-1.5-1zm-43 7.1c0 .4.5 1.5 1 2.3.8 1.3 1 1.3 1-.2 0-.9-.4-2-1-2.3-.5-.3-1-.3-1 .2zm-81.4 6.9c-1 1.4-1.6 2.9-1.4 3.4.2.4 1.1-.7 2-2.6 2.1-4 1.7-4.5-.6-.8zm46.1-.9c-.4.3-.7 1.1-.7 1.7s.5.5 1.2-.2c.6-.6.9-1.4.7-1.7-.3-.3-.9-.2-1.2.2zm40.3 4.2c0 .6.4 1.3 1 1.6s.7-.1.4-.9c-.7-1.8-1.4-2.1-1.4-.7zm-93.4 9.6c-.3.8-.1 1.5.4 1.5.6 0 1-.7 1-1.5s-.2-1.5-.4-1.5-.6.7-1 1.5zm102.5 7.1c0 1.1.3 1.4.6.6.3-.7.2-1.6-.1-1.9-.3-.4-.6.2-.5 1.3zm46.9-.9c0 .6.9 2 2 3.3s2 2 2 1.6-.9-1.9-2-3.3-2-2.1-2-1.6zm-107 1.8c0 .5.5 1.7 1 2.5s1 1 1 .5c0-.6-.5-1.7-1-2.5s-1-1.1-1-.5zm62 2.9c0 .8.4 1.7.9 2 .5.4.7-.3.4-1.4-.6-2.3-1.3-2.6-1.3-.6zm-111.4 1.2c-.4.9-.4 1.9-.1 2.2.2.3.7-.3 1.1-1.2s.4-1.9.1-2.2c-.2-.3-.7.3-1.1 1.2zm161.4 2.5c0 .9.8 2.7 1.8 3.9 1.8 2.2 1.9 2.2 2.6.4.4-1 .4-1.5 0-1.1s-1.6-.5-2.6-2q-1.8-2.85-1.8-1.2zm-166.5 7.8c-.3 1.2-1.1 2.1-1.6 2.1s-.9.7-.9 1.5-.4 1.5-1 1.5c-.5 0-1 .8-1 1.9 0 1-.9 3-2 4.4s-2 3.3-2 4.3c0 2.3 1.2 1.1 3.8-3.8 1-2.1 2.3-3.4 2.7-3s.4-.3.1-1.6c-.4-1.2-.3-2.2.2-2.2 1 0 3.5-6 2.8-6.7-.2-.3-.7.5-1.1 1.6zm175.1 8.5c.5 3.3 1.1 4.3 2 3.3.4-.4.2-1.2-.3-1.9-.6-.7-1.3-2-1.6-2.8-.2-.8-.3-.2-.1 1.4zm1.4-1.5c0 .6.4 1.3 1 1.6s.7-.1.4-.9c-.7-1.8-1.4-2.1-1.4-.7zm-134.5 2.2c-.4.6-.5 1.2-.2 1.5.2.3.7-.2 1-1.1.7-1.7.1-2-.8-.4zm-54.1 12.2c-3.6 5.3-3.7 5.9-2.3 6.8 1.1.7.9.9-.6.9-2.5 0-5.3 5.6-3.7 7.2.8.8 1 .5.6-.8-.3-1.3.6-2.7 3-4.4 2.1-1.6 3-2.8 2.3-3.2-.8-.5-.4-2 1.1-4.9 2.7-5.1 2.5-6-.4-1.6zm195.6.7c-1.1.7-1.2 1.2-.4 2s1.3.6 1.7-.9c.3-1.2.4-2.1.4-2.1-.1 0-.9.5-1.7 1zm-43 10.5c0 .5.5 1.7 1 2.5s1 1 1 .5c0-.6-.5-1.7-1-2.5s-1-1.1-1-.5zm48.5.5c.3.5.8 1 1.1 1 .2 0 .4-.5.4-1 0-.6-.5-1-1.1-1-.5 0-.7.4-.4 1zM396 230.7c0 .5.7 1.8 1.5 2.9 1.3 1.8 1.4 1.8.8-.4-.5-2.2-2.3-4.1-2.3-2.5zm49.3 0c-1.8.6-1.6 2.3.1 2.3s3-1.6 1.9-2.3c-.5-.2-1.4-.2-2 0zm-46.3 6.2c0 .6.4 1.3 1 1.6s.7-.1.4-.9c-.7-1.8-1.4-2.1-1.4-.7zm-161.2 1.8c.7.3 1.6.2 1.9-.1.4-.3-.2-.6-1.3-.5-1.1 0-1.4.3-.6.6zm64.2 17.8c0 .8.2 1.5.4 1.5s.6-.7 1-1.5c.3-.8.1-1.5-.4-1.5-.6 0-1 .7-1 1.5zm5.6 1c-.3.8-.1 1.5.4 1.5.6 0 1-.5 1-1.1 0-.5.4-.8.9-.4.5.3 1.2.1 1.6-.5.3-.5-.3-1-1.3-1-1.1 0-2.2.7-2.6 1.5zm-16 10c-1.1.8-1.5 1.5-.9 1.5s1.6-.7 2.3-1.5c1.6-1.9 1.1-1.9-1.4 0zm-189.8.2c.6.2 1.2 1.1 1.2 1.9s.2 1.4.4 1.4 1.2.3 2.1.7c1.4.5 1.2 0-.6-2-1.2-1.5-2.7-2.7-3.3-2.6-.6 0-.5.3.2.6zm7.4 8.7c.7.8 1.5 1.2 1.7 1.1.5-.6-1-2.5-2-2.5-.5 0-.4.6.3 1.4zm164.6 7.3c.7.3 1.6.2 1.9-.1.4-.3-.2-.6-1.3-.5-1.1 0-1.4.3-.6.6zm-132 11c.7.3 1.6.2 1.9-.1.4-.3-.2-.6-1.3-.5-1.1 0-1.4.3-.6.6zM243 299c-.8.5-1 1-.5 1 .6 0 1.7-.5 2.5-1s1.1-1 .5-1c-.5 0-1.7.5-2.5 1zm-11.4 3.8c-.3.5.8.6 2.5.4 1.6-.2 2.9-.6 2.9-.8 0-.8-4.9-.4-5.4.4zM174.5 314c2.7 1.2 4.3 1.2 2.5 0-.8-.5-2.2-.9-3-.9-1 0-.8.3.5.9zm49.5 2c-2 .6-2.1.8-.5.8 1.1 0 3.1-.4 4.5-.8 2-.6 2.1-.8.5-.8-1.1 0-3.1.4-4.5.8zm-12 3c0 1.3 1.1 1.3 3 0 1.2-.8 1.1-1-.7-1-1.3 0-2.3.4-2.3 1z"/><path fill="#008055" stroke="#008055" stroke-width=".1" d="M189.8 68.7c.7.3 1.6.2 1.9-.1.4-.3-.2-.6-1.3-.5-1.1 0-1.4.3-.6.6zm-9 1c.6.2 1.8.2 2.5 0 .6-.3.1-.5-1.3-.5s-1.9.2-1.2.5zM364 79c.6 1.1 1.3 2 1.6 2 .2 0 0-.9-.6-2s-1.3-2-1.6-2c-.2 0 0 .9.6 2zM93.4 114.2l-2.9 3.3 3.3-2.9c3-2.8 3.7-3.6 2.9-3.6-.2 0-1.6 1.5-3.3 3.2zm341.2 94.1c.3 1 .9 1.5 1.2 1.2s0-1.1-.7-1.8c-1-.9-1.1-.8-.5.6zm6 11c.3 1 .9 1.5 1.2 1.2s0-1.1-.7-1.8c-1-.9-1.1-.8-.5.6zm-207.4 21.4c7 .2 18.7.2 26 0 7.3-.1 1.6-.3-12.7-.3s-20.3.2-13.3.3zm179.1 0c7.1.2 18.3.2 25 0 6.7-.1 1-.3-12.8-.3-13.7 0-19.2.2-12.2.3zM98 260.4c0 .2.8 1 1.8 1.7 1.5 1.3 1.6 1.2.3-.4s-2.1-2.1-2.1-1.3zm201.9 17.3c-1.3 1.6-1.2 1.7.4.4s2.1-2.1 1.3-2.1c-.2 0-1 .8-1.7 1.7z"/><path fill="#558055" stroke="#558055" stroke-width=".1" d="M196.8 68.7c2.3.2 5.9.2 8 0 2-.2.1-.4-4.3-.4s-6.1.2-3.7.4zM364 77c.6 1.1 1.3 2 1.6 2 .2 0 0-.9-.6-2s-1.3-2-1.6-2c-.2 0 0 .9.6 2zM205.8 320.7c.6.2 1.8.2 2.5 0 .6-.3.1-.5-1.3-.5s-1.9.2-1.2.5z"/><path fill="#500" stroke="#500" stroke-width=".1" d="M718.2 77c0 1.4.2 1.9.5 1.2.2-.6.2-1.8 0-2.5-.3-.6-.5-.1-.5 1.3zm.3 91c0 22.3.1 31.4.2 20.3.2-11.2.2-29.4 0-40.5-.1-11.2-.2-2.1-.2 20.2z"/><path fill="#055" stroke="#055" stroke-width=".1" d="M272 72.4c0 .2.8 1 1.8 1.7 1.5 1.3 1.6 1.2.3-.4s-2.1-2.1-2.1-1.3z"/><path fill="#80aaaa" stroke="#80aaaa" stroke-width=".1" d="M326.5 136c-.3.5-.1 1 .4 1 .6 0 1.1-.5 1.1-1 0-.6-.2-1-.4-1-.3 0-.8.4-1.1 1zm-44 84c-.3.5-.1 1 .4 1 .6 0 1.1-.5 1.1-1 0-.6-.2-1-.4-1-.3 0-.8.4-1.1 1zm.4 74.7c-1.3 1.6-1.2 1.7.4.4.9-.7 1.7-1.5 1.7-1.7 0-.8-.8-.3-2.1 1.3z"/><path fill="#805500" stroke="#805500" stroke-width=".1" d="M582.8 108.7c.7.3 1.6.2 1.9-.1.4-.3-.2-.6-1.3-.5-1.1 0-1.4.3-.6.6zm48.5 0c2 .2 5.4.2 7.5 0 2-.2.3-.4-3.8-.4s-5.8.2-3.7.4z"/><path fill="#d4aa00" stroke="#d4aa00" stroke-width=".1" d="M567.8 70.7c23.9.2 62.6.2 86 0 23.5-.1 4-.2-43.3-.2s-66.5.1-42.7.2zm-78.5 15.8c0 2.7.2 3.8.4 2.2.2-1.5.2-3.7 0-5-.2-1.2-.4 0-.4 2.8zm65.5 51.2c2.9.2 7.4.2 10 0s.2-.3-5.3-.3-7.6.1-4.7.3z"/><path fill="#d4d400" stroke="#d4d400" stroke-width=".1" d="M496.3 70.7c.9.2 2.5.2 3.5 0 .9-.3.1-.5-1.8-.5s-2.7.2-1.7.5zm14 0c1.5.2 3.9.2 5.5 0 1.5-.2.2-.4-2.8-.4s-4.3.2-2.7.4zm11 0c.9.2 2.3.2 3 0 .6-.3-.1-.5-1.8-.5-1.6 0-2.2.2-1.2.5zm174.4 0c-.4.3-.7 1.3-.7 2.2.1 1.3.3 1.3 1.1-.2 1.1-1.9.8-3.3-.4-2zm-7.7 9.4c0 .5.5.7 1 .4.6-.3 1-.8 1-1.1 0-.2-.4-.4-1-.4-.5 0-1 .5-1 1.1zm-15.5 17c-1.1 1.7.1 2.1 1.5.4.8-.9.8-1.5.2-1.5s-1.4.5-1.7 1.1zm-8.4 8.5c-2.8 2-3 2.4-1.4 2.4 1.2 0 2.8-1.1 3.7-2.5s1.5-2.5 1.4-2.4c-.2 0-1.8 1.2-3.7 2.5zm-118.3 2.1c1.2.2 3.2.2 4.5 0 1.2-.2.2-.4-2.3-.4s-3.5.2-2.2.4zm-4.6 6.8c0 1.6.2 2.2.5 1.2.2-.9.2-2.3 0-3-.3-.6-.5.1-.5 1.8zm-.1 8.6c0 1.5-.3 4.2-.6 6l-.5 3.4 1.1-3.4c.5-1.8.8-4.5.6-6l-.4-2.6zm139.5 14.8c-.4.5-.2 1.2.3 1.5.5.4 1.2.2 1.5-.3.4-.5.2-1.2-.3-1.5-.5-.4-1.2-.2-1.5.3zm-4.3 5.6c0 .8.4 1.5.7 1.5.4 0 1.3-.7 2-1.5 1-1.2.9-1.5-.7-1.5-1.1 0-2 .7-2 1.5zm-4.7 6.1c-.9 2.4-.7 2.7.9 1 1.7-1.7 1.9-2.6.6-2.6-.5 0-1.2.7-1.5 1.6zm-4.2 3.7c-.6.7-1.9 2.5-2.8 4-2.8 4.3-.4 3.1 2.7-1.3 2.6-3.7 2.7-5.6.1-2.7zM649.5 173c-.3.5.1 1 .9 1 .9 0 1.6-.5 1.6-1 0-.6-.4-1-.9-1-.6 0-1.3.4-1.6 1zm-108.2 7.5c0 2.2.2 3 .4 1.7.2-1.2.2-3 0-4-.3-.9-.5.1-.4 2.3zm-.3 35.2c-.3 13.3-.2 23.9.3 23.4.4-.4.6-11.3.5-24.2l-.3-23.4z"/><g fill="#ffd400" stroke="#ffd400" stroke-width=".1"><path d="M491 70.8c-.7.3-1 29.3-1 84.8V240h24.9c13.8 0 25.2-.4 25.5-.8.3-.5.6-14.7.7-31.6.3-27.8.5-30.8 2-31.6 1-.6 23.1-.8 52.5-.6 28 .2 52 0 53.4-.4 1.4-.5 1.9-.8 1.2-.9-2.1-.2-.3-2.1 1.9-2.1 1.3 0 2.5-1.1 3.4-3.3.8-1.7 1.4-2.8 1.5-2.3 0 1.8 4.1-2.8 6.7-7.6 1.7-3 3.2-4.7 4.2-4.6 1 .2 2.1-.9 2.9-2.8.8-1.6 2.4-3.4 3.5-4 1.2-.5 2.2-1.8 2.2-2.9 0-1.2.8-2.2 2-2.5 1.2-.4 2-1.5 2.1-2.8.1-1.6-.3-2.1-1.5-1.7-3.1.9-133.6.9-135.2 0-2.8-1.8-4-6.6-3-12.5.5-3 .7-7.5.5-10-.3-2.5-.1-5.1.4-5.9.8-1.1 10.6-1.3 59.5-1.2 50.7.2 59 0 61.5-1.3 1.6-.8 3.2-1.3 3.5-1 .5.5 4.4-4.5 6.2-8.1.6-1.1 1.6-2 2.2-2 .7 0 2-.9 3-2 2-2.1 2.3-2.7 2.3-4.7 0-.6.3-.9.6-.5.9.9 7.4-5.4 7.4-7.2 0-.9 1-2.1 2.3-2.6 1.2-.6 2.1-1.6 1.9-2.3-.1-.7.4-1.1 1-1 .7.2 1.4-.7 1.6-2l.3-2.2-93.8-.2c-51.6-.1-97.3-.2-101.5-.2-4.3-.1-8.2 0-8.8.2zm53.8 5.4c.4 1.6 1.7 1.8 11.8 1.8 10.8 0 11.4-.1 11.4-2.1 0-1.8.5-2 4.3-1.7 2.8.2 4.1.7 3.9 1.6-.2 1.1 3.6 1.3 19.8 1.1 15.6-.2 20-.6 20-1.6s2.1-1.3 8-1.3c7.3 0 8 .2 8 2 0 1.7.7 2 4.5 2 2.5 0 4.5.4 4.5 1s3 1 7 1 7-.4 7-1c0-1.3 17.7-1.3 18.4-.1.4.5.1 1.1-.5 1.3-.8.3-.7 1.2.5 3 1 1.6 2.3 2.5 3.2 2.1 2-.8 1.8-5.1-.3-5.5-1.1-.3-.6-.6 1.3-.9 1.7-.3 4-.2 5 .2 1.7.7 1.7.8-.3.8-1.5.1-2.1.6-1.7 1.5.3.8-.2 2.9-1.2 4.6-1.6 2.5-2.3 3-4.5 2.5-3.1-.7-4.3 1.2-3.3 5.1.6 2.2.3 2.4-2.5 2.4-2 0-3.1.5-3.1 1.4 0 1.7-3.2 4.5-3.7 3.1-.4-1.4-101.3-.9-102.7.5-.7.7 7.2 1 24.2 1 16.1 0 25.2.4 25.2 1s-12.5 1-35.6 1h-35.6l.6 2.3c.3 1.5-.1 2.8-1.3 3.9-1.3 1.1-2 3.6-2.6 9.2-.5 5.5-1.1 7.9-2.3 8.5-1.5.9-1.5 1.1.3 3.1l2 2.2.6-2.4c.5-1.7.7-1.2.8 2.1.1 3.4.4 4.2 1.6 3.7.8-.3 2.3.4 3.4 1.5 1.6 1.7 3.4 2.1 10.3 2.4 9.9.3 10.8.6 4.8 1.5-2.6.4 4.6.8 16.9.8 23.3.2 28.4-.5 7.8-1-7-.2-12.7-.7-12.7-1.2s2.7-.6 6.1-.2c3.4.3 12.8.6 20.8.6 9.8 0 14.1.3 13.1 1-1.1.7-.2 1 3.3 1 2.6 0 4.7-.5 4.7-1 0-.6 3.5-.9 8.8-.8 7.7.1 8.1.2 3.7.8l-5 .7 4.5.3c2.5.2 9.2.4 15 .5 11.4.1 17 1.7 17 4.7 0 1.1.8 1.8 2 1.8 1.1 0 2 .5 2 1.1 0 .7-1.2 1-3 .7-3-.5-3.4 0-3.1 3.4.1 1-.3 1.8-.8 1.8-.6 0-1.1.7-1.1 1.5s.5 1.5 1.1 1.5c.5 0 .7.5.3 1.2-.6.9-.9.9-1.2 0-.4-1.3-4.3-1.7-4.1-.5.4 2.4-.4 4.5-2.3 6.6-2.2 2.3-2.9 2.4-15.3 2.5-7.3 0-12.3-.3-11.6-.8.8-.4 1.1-1.5.8-2.4-.6-1.4-1.9-1.6-7.9-1.4-4.6.2-7.3.7-7.6 1.5-.2.9.9 1.3 3.7 1.3 2.2 0 4.3.5 4.6 1.1.5.7-9.8.9-34.2.7-29.2-.3-35.1-.1-36.5 1.1-1 .8-3.7 2.2-6 3.1l-4.3 1.6-.6 23.9c-.4 13.2-1 25.9-1.4 28.2-.5 3.3-.4 4.3.6 4.3 1.1 0 1.1.2-.1.9-1.9 1.3-3 .4-2.4-1.7.5-1.5.4-1.5-1 .2-.8 1-1.9 1.5-2.5 1.1-.6-.3-1.1-.2-1.1.2 0 .5-1.6.9-3.5.9s-3.5-.4-3.5-.8-1.8-.8-4-.8c-2.9 0-4 .4-4 1.5 0 1.3-1.2 1.5-7.2 1.1-8.9-.5-9.4-.7-4.3-1.6l4-.7-4.2-.2c-3.2-.1-4.3.3-4.6 1.6-.2 1-.3.5-.1-1.1s.4-4.1.4-5.7c0-1.9.6-3 2-3.4 1.5-.5 2-1.5 2-4.1 0-2.7-.4-3.4-2-3.4-1.9 0-2-.7-2-24 0-15.3-.4-24-1-24-.5 0-1-1.8-1-4s.4-4 1-4 1.1-14.9 1.2-41.3l.3-41.2 16-.5c9.7-.4 12.8-.7 7.8-.8-5.1-.1-8.3-.6-8.3-1.3s5.2-.9 16.1-.8c14.7.3 16.2.5 16.7 2.1zM608 75c0 .6-3.3 1-8 1s-8-.4-8-1 3.3-1 8-1 8 .4 8 1zm64.7 17.2c-.3.8-.6.5-.6-.6-.1-1.1.2-1.7.5-1.3.3.3.4 1.2.1 1.9zM651.5 103c-7.5 1.2-27.5 1.2-27.5 0 0-.6 6-1 16.3-.9 11.7.1 14.8.4 11.2.9zm10.5 0c-2 1.3-4 1.3-4 0 0-.6 1.2-1 2.8-1 2.1 0 2.4.2 1.2 1zm6.8 40.7c-1 .3-1.6 1.3-1.5 2.8.1 1.3-.2 2.4-.8 2.3-.5 0-.9-.4-.8-.9.2-.4-.7-1.4-1.8-2-1.7-.9-1.9-1.3-.8-2 .8-.5 2.8-.8 4.4-.8 1.7.1 2.2.3 1.3.6zm1.2 8.7c0 .3-.4.8-1 1.1-.5.3-1 .1-1-.4 0-.6.5-1.1 1-1.1.6 0 1 .2 1 .4z"/><path d="M537.8 76.7c1.2.2 3.2.2 4.5 0 1.2-.2.2-.4-2.3-.4s-3.5.2-2.2.4zm-4.1 28.9c-.4.4-.7 1.4-.7 2.3 0 1.1.3 1.2 1.1.4.6-.6 1-1.6.7-2.3-.2-.6-.7-.8-1.1-.4zm2.3 35.9c0 .8.5 1.5 1 1.5.6 0 1-.7 1-1.5s-.4-1.5-1-1.5c-.5 0-1 .7-1 1.5zm107.2 20.7c-1.4 1.4-1.6 3.8-.2 3.8 1.3 0 3.2-3.8 2.2-4.4-.5-.3-1.4 0-2 .6zm-80.2 3.4c6 .8 12.8.8 12.3.1-.2-.4-3.7-.6-7.6-.6-4 .1-6.1.3-4.7.5z"/></g><path fill="#aa0" stroke="#aa0" stroke-width=".1" d="M489.2 73c0 1.4.2 1.9.5 1.2.2-.6.2-1.8 0-2.5-.3-.6-.5-.1-.5 1.3zm0 6.5c0 1.6.2 2.2.5 1.2.2-.9.2-2.3 0-3-.3-.6-.5.1-.5 1.8zm.2 22.5c0 6.3.1 8.9.3 5.7.2-3.1.2-8.3 0-11.5-.2-3.1-.3-.5-.3 5.8zm88.9 35.7c5.4.2 13.9.2 19 0 5.1-.1.7-.3-9.8-.3-10.4 0-14.6.2-9.2.3zm82 0c3.1.2 8.3.2 11.5 0 3.1-.2.5-.3-5.8-.3s-8.9.1-5.7.3zm-171 93.3c0 4.7.2 6.6.4 4.2.2-2.3.2-6.1 0-8.5-.2-2.3-.4-.4-.4 4.3zm32 9.7c.9.2 2.3.2 3 0 .6-.3-.1-.5-1.8-.5-1.6 0-2.2.2-1.2.5z"/><path fill="#a00" stroke="#a00" stroke-width=".1" d="M731.3 70.7c7.1.2 18.3.2 25 0 6.7-.1 1-.3-12.8-.3-13.7 0-19.2.2-12.2.3zm43.7 84.6.5 85.2.3-84.4c.1-46.5-.1-84.8-.5-85.2-.5-.5-.6 37.5-.3 84.4zm-45.2 85.4c1.2.2 3.2.2 4.5 0 1.2-.2.2-.4-2.3-.4s-3.5.2-2.2.4zm16 0c1.2.2 3.2.2 4.5 0 1.2-.2.2-.4-2.3-.4s-3.5.2-2.2.4zm19 0c1.8.2 4.5.2 6 0s0-.4-3.3-.4-4.5.2-2.7.4z"/><g fill="#d40000" stroke="#d40000" stroke-width=".1"><path d="M768.4 70.8c.4.3 1.6.6 2.9.7l2.2.2.1 52.4c.1 28.8-.2 47.7-.6 41.9s-.5-24.2-.4-41 0-35.1-.3-40.7l-.6-10.3-25.9.3-25.9.2-.2 81.5-.2 81.5 3 .6 3 .6-3.5.5c-3.6.5 7.2 1.1 23 1.3 11 .2 31.1-.8 28.6-1.3-1.8-.4-1.9-1.1-1.3-11.6.4-6.1.8-14.9.9-19.6s.5.3.8 11 .6-18.3.5-64.5V70.6l-3.3-.2c-1.8-.1-3.1.1-2.8.4zm-4.6 167.9c-2.1.2-5.7.2-8 0-2.4-.2-.7-.4 3.7-.4s6.3.2 4.3.4zm-38-167c.7.3 1.6.2 1.9-.1.4-.3-.2-.6-1.3-.5-1.1 0-1.4.3-.6.6zm4 0c.6.2 1.8.2 2.5 0 .6-.3.1-.5-1.3-.5s-1.9.2-1.2.5zm8 0c1.2.2 3.2.2 4.5 0 1.2-.2.2-.4-2.3-.4s-3.5.2-2.2.4z"/><path d="M748.8 71.7c2.3.2 5.9.2 8 0 2-.2.1-.4-4.3-.4s-6.1.2-3.7.4z"/></g><path fill="maroon" stroke="maroon" stroke-width=".1" d="M718.2 73c0 1.4.2 1.9.5 1.2.2-.6.2-1.8 0-2.5-.3-.6-.5-.1-.5 1.3zm.2 30.5c0 13.7.2 19.5.3 12.8.2-6.7.2-17.9 0-25-.1-7-.3-1.6-.3 12.2zm0 120c0 8.8.2 12.3.3 7.7.2-4.6.2-11.8 0-16-.1-4.2-.3-.5-.3 8.3z"/><path fill="#55aa80" stroke="#55aa80" stroke-width=".1" d="M315.6 156.7c-.6 1.4-.5 1.5.5.6.7-.7 1-1.5.7-1.8s-.9.2-1.2 1.2zM445 226.9c0 .6.4 1.3 1 1.6s.7-.1.4-.9c-.7-1.8-1.4-2.1-1.4-.7zm-167.4 1.8c-.6 1.4-.5 1.5.5.6.7-.7 1-1.5.7-1.8s-.9.2-1.2 1.2zm8.4 63.4c0 .5.5.7 1 .4.6-.3 1-.8 1-1.1 0-.2-.4-.4-1-.4-.5 0-1 .5-1 1.1zm-49.2 24.6c.7.3 1.6.2 1.9-.1.4-.3-.2-.6-1.3-.5-1.1 0-1.4.3-.6.6zm-11 2c.7.3 1.6.2 1.9-.1.4-.3-.2-.6-1.3-.5-1.1 0-1.4.3-.6.6z"/><path fill="#d4aa55" stroke="#d4aa55" stroke-width=".1" d="M495.3 240.7c.9.2 2.3.2 3 0 .6-.3-.1-.5-1.8-.5-1.6 0-2.2.2-1.2.5zm10 0c.9.2 2.5.2 3.5 0 .9-.3.1-.5-1.8-.5s-2.7.2-1.7.5z"/><path fill="red" stroke="red" stroke-width=".1" d="M720 71.8c-.5.2-1 .9-1 1.5 0 .9 6.8 1.1 26.3 1l26.4-.3.6 10.3c.3 5.6.4 23.9.3 40.7s0 35.2.4 41 .7-13.1.6-42l-.1-52.5h-26.2c-14.5 0-26.7.1-27.3.3zm-.6 36.2c0 15.7.2 22.1.3 14.2.2-7.8.2-20.6 0-28.5-.1-7.8-.3-1.4-.3 14.3zm-.1 40c0 2.5.2 3.5.4 2.2.2-1.2.2-3.2 0-4.5-.2-1.2-.4-.2-.4 2.3zm0 48c0 2.5.2 3.5.4 2.2.2-1.2.2-3.2 0-4.5-.2-1.2-.4-.2-.4 2.3zm53.4 22.9c-.4 10.6-.6 19.6-.3 19.8 1.7 1.7 2-2.5 1.6-19.7l-.5-19.5zm-53.4-2.9c0 4.7.2 6.6.4 4.2.2-2.3.2-6.1 0-8.5-.2-2.3-.4-.4-.4 4.3zm-.3 22.2c0 .4 1.4.8 3 .8 1.7 0 3-.2 3-.4s-1.3-.6-3-.8c-1.6-.3-3-.1-3 .4zm36.8.5c2.3.2 5.9.2 8 0 2-.2.1-.4-4.3-.4s-6.1.2-3.7.4z"/><path fill="#ffd455" stroke="#ffd455" stroke-width=".1" d="m670.4 101.2-1.9 2.3 2.3-1.9c1.2-1.1 2.2-2.1 2.2-2.3 0-.8-.8-.2-2.6 1.9zm-118.1 74.5c4.8.2 12.5.2 17 0 4.5-.1.6-.3-8.8-.3-9.3 0-13 .2-8.2.3zm59.5 0c2.3.2 6.1.2 8.5 0 2.3-.2.4-.4-4.3-.4s-6.6.2-4.2.4zm36 0c.7.3 1.6.2 1.9-.1.4-.3-.2-.6-1.3-.5-1.1 0-1.4.3-.6.6z"/><path fill="#aa5" stroke="#aa5" stroke-width=".1" d="m667.4 157.2-1.9 2.3 2.3-1.9c1.2-1.1 2.2-2.1 2.2-2.3 0-.8-.8-.2-2.6 1.9zm-167.1 83.5c.9.2 2.3.2 3 0 .6-.3-.1-.5-1.8-.5-1.6 0-2.2.2-1.2.5zm12 0c1.5.2 3.9.2 5.5 0 1.5-.2.2-.4-2.8-.4s-4.3.2-2.7.4zm16.5 0c1.2.2 3.2.2 4.5 0 1.2-.2.2-.4-2.3-.4s-3.5.2-2.2.4z"/><path fill="#80aa80" stroke="#80aa80" stroke-width=".1" d="M98.9 109.7c-1.3 1.6-1.2 1.7.4.4.9-.7 1.7-1.5 1.7-1.7 0-.8-.8-.3-2.1 1.3z"/><path fill="#aa8080" stroke="#aa8080" stroke-width=".1" d="M776.4 102.5c0 9.9.2 13.8.3 8.7.2-5.1.2-13.2 0-18-.1-4.8-.3-.6-.3 9.3zm0 101c0 11 .2 15.6.3 10.3.2-5.3.2-14.3 0-20-.1-5.7-.3-1.3-.3 9.7z"/><g fill="#fa0" stroke="#fa0" stroke-width=".1"><path d="M512 74.9c0 .7 3.2 1.2 8.3 1.3 5 .1 1.9.4-7.8.8l-16 .5-.3 41.2c-.1 26.4-.6 41.3-1.2 41.3s-1 1.8-1 4 .5 4 1 4c.6 0 1 8.7 1 24 0 23.3.1 24 2 24 1.6 0 2 .7 2 3.4 0 2.6-.5 3.6-2 4.1-1.4.4-2 1.5-2 3.4 0 1.6-.2 4.1-.4 5.7s-.1 2.1.1 1.1c.3-1.3 1.4-1.7 4.6-1.6l4.2.2-4 .7c-5.1.9-4.6 1.1 4.3 1.6 6 .4 7.2.2 7.2-1.1 0-1.1 1.1-1.5 4-1.5 2.2 0 4 .4 4 .8s1.6.8 3.5.8 3.5-.4 3.5-.9c0-.4.5-.5 1.1-.2.6.4 1.7-.1 2.5-1.1 1.4-1.7 1.5-1.7 1-.2-.6 2.1.5 3 2.4 1.7 1.2-.7 1.2-.9.1-.9-1 0-1.1-1-.6-4.3.4-2.3 1-15 1.4-28.2l.6-23.9 4.3-1.6c2.3-.9 5-2.3 6-3.1 1.4-1.2 7.3-1.4 36.5-1.1 24.4.2 34.7 0 34.2-.7-.3-.6-2.4-1.1-4.6-1.1-2.8 0-3.9-.4-3.7-1.3.3-.8 3-1.3 7.6-1.5 6-.2 7.3 0 7.9 1.4.3.9 0 2-.8 2.4-.7.5 4.3.8 11.6.8 12.4-.1 13.1-.2 15.3-2.5 1.9-2.1 2.7-4.2 2.3-6.6-.2-1.2 3.7-.8 4.1.5.3.9.6.9 1.2 0 .4-.7.2-1.2-.3-1.2-.6 0-1.1-.7-1.1-1.5s.5-1.5 1.1-1.5c.5 0 .9-.8.8-1.8-.3-3.4.1-3.9 3.1-3.4 1.8.3 3 0 3-.7 0-.6-.9-1.1-2-1.1-1.2 0-2-.7-2-1.8 0-3-5.6-4.6-17-4.7-5.8-.1-12.5-.3-15-.5l-4.5-.3 5-.7c4.4-.6 4-.7-3.7-.8-5.3-.1-8.8.2-8.8.8 0 .5-2.1 1-4.7 1-3.5 0-4.4-.3-3.3-1 1-.7-3.3-1-13.1-1-8 0-17.4-.3-20.8-.6-3.4-.4-6.1-.3-6.1.2s5.7 1 12.7 1.2c20.6.5 15.5 1.2-7.8 1-12.3 0-19.5-.4-16.9-.8 6-.9 5.1-1.2-4.8-1.5-6.9-.3-8.7-.7-10.3-2.4-1.1-1.1-2.6-1.8-3.4-1.5-1.2.5-1.5-.3-1.6-3.7-.1-3.3-.3-3.8-.8-2.1l-.6 2.4-2-2.2c-1.8-2-1.8-2.2-.3-3.1 1.2-.6 1.8-3 2.3-8.5.6-5.6 1.3-8.1 2.6-9.2 1.2-1.1 1.6-2.4 1.3-3.9l-.6-2.3h35.6c23.1 0 35.6-.4 35.6-1s-9.1-1-25.2-1c-17 0-24.9-.3-24.2-1 1.4-1.4 102.3-1.9 102.7-.5.5 1.4 3.7-1.4 3.7-3.1 0-.9 1.1-1.4 3.1-1.4 2.8 0 3.1-.2 2.5-2.4-1-3.9.2-5.8 3.3-5.1 2.2.5 2.9 0 4.5-2.5 1-1.7 1.5-3.8 1.2-4.6-.4-.9.2-1.4 1.7-1.5 2 0 2-.1.3-.8-1-.4-3.3-.5-5-.2-1.9.3-2.4.6-1.3.9 2.1.4 2.3 4.7.3 5.5-.9.4-2.2-.5-3.2-2.1-1.2-1.8-1.3-2.7-.5-3 .6-.2.9-.8.5-1.3-.7-1.2-18.4-1.2-18.4.1 0 .6-3 1-7 1s-7-.4-7-1-2-1-4.5-1c-3.8 0-4.5-.3-4.5-2 0-1.8-.7-2-8-2-5.9 0-8 .3-8 1.3s-4.4 1.4-20 1.6c-16.2.2-20 0-19.8-1.1.2-.9-1.1-1.4-3.9-1.6-3.8-.3-4.3-.1-4.3 1.7 0 2-.6 2.1-11.4 2.1-10.1 0-11.4-.2-11.8-1.8-.5-1.6-2-1.8-16.7-2.1-10.9-.1-16.1.1-16.1.8zm30.3 1.8c-1.3.2-3.3.2-4.5 0-1.3-.2-.3-.4 2.2-.4s3.5.2 2.3.4zm-8.2 31.6c-.8.8-1.1.7-1.1-.4 0-2 1.3-3.4 1.8-1.9.3.7-.1 1.7-.7 2.3zm3.9 33.2c0 .8-.4 1.5-1 1.5-.5 0-1-.7-1-1.5s.5-1.5 1-1.5c.6 0 1 .7 1 1.5zm107 22.6c-1.2 2.2-3 2.5-3 .6 0-1.7 2.1-3.8 3.2-3.1.4.3.3 1.4-.2 2.5zm-69.7 1.6c.3.5-1.8.7-4.6.5-9.2-.5-10.4-.9-3-1.1 3.9 0 7.4.2 7.6.6z"/><path d="M592 75c0 .6 3.3 1 8 1s8-.4 8-1-3.3-1-8-1-8 .4-8 1zm80.1 16.6c0 1.1.3 1.4.6.6.3-.7.2-1.6-.1-1.9-.3-.4-.6.2-.5 1.3zM624 103c0 1.2 20 1.2 27.5 0 3.6-.5.5-.8-11.2-.9-10.3-.1-16.3.3-16.3.9zm34 0c0 1.3 2 1.3 4 0 1.2-.8.9-1-1.2-1-1.6 0-2.8.4-2.8 1zm-109.7 35.7c2 .2 5.4.2 7.5 0 2-.2.3-.4-3.8-.4s-5.8.2-3.7.4zm114.8 5.2c-1.1.7-.9 1.1.8 2 1.1.6 2 1.6 1.8 2-.1.5.3.9.8.9.6.1.9-1 .8-2.3-.1-1.5.5-2.5 1.5-2.8.9-.3.4-.5-1.3-.6-1.6 0-3.6.3-4.4.8z"/></g><path fill="#d4d455" stroke="#d4d455" stroke-width=".1" d="M683.9 86.7c-1.3 1.6-1.2 1.7.4.4s2.1-2.1 1.3-2.1c-.2 0-1 .8-1.7 1.7zM541.2 131c0 1.9.2 2.7.5 1.7.2-.9.2-2.5 0-3.5-.3-.9-.5-.1-.5 1.8zm-50.4 109.7c.6.2 1.8.2 2.5 0 .6-.3.1-.5-1.3-.5s-1.9.2-1.2.5zm46 0c.6.2 1.8.2 2.5 0 .6-.3.1-.5-1.3-.5s-1.9.2-1.2.5z"/><path fill="#aa8000" stroke="#aa8000" stroke-width=".1" d="M489.5 168c0 30.5.1 43 .2 27.7.2-15.2.2-40.2 0-55.5-.1-15.2-.2-2.7-.2 27.8zm56.3-30.3c.7.3 1.6.2 1.9-.1.4-.3-.2-.6-1.3-.5-1.1 0-1.4.3-.6.6zm72.5 0c7.1.2 18.3.2 25 0 6.7-.1 1-.3-12.8-.3-13.7 0-19.2.2-12.2.3z"/><path fill="#aa5580" stroke="#aa5580" stroke-width=".1" d="M776.2 77.5c0 1.6.2 2.2.5 1.2.2-.9.2-2.3 0-3-.3-.6-.5.1-.5 1.8zm0 45.5c0 1.9.2 2.7.5 1.7.2-.9.2-2.5 0-3.5-.3-.9-.5-.1-.5 1.8z"/><path fill="#808055" stroke="#808055" stroke-width=".1" d="M655.3 108.7c.9.2 2.3.2 3 0 .6-.3-.1-.5-1.8-.5-1.6 0-2.2.2-1.2.5zM542.2 119c0 1.9.2 2.7.5 1.7.2-.9.2-2.5 0-3.5-.3-.9-.5-.1-.5 1.8zm.1 70.5c0 3.3.2 4.5.4 2.7s.2-4.5 0-6-.4 0-.4 3.3z"/><path fill="#a55" stroke="#a55" stroke-width=".1" d="M776.1 81.6c0 1.1.3 1.4.6.6.3-.7.2-1.6-.1-1.9-.3-.4-.6.2-.5 1.3zm.3 73.9c0 15.9.2 22.3.3 14.2.2-8.2.2-21.2 0-29-.1-7.8-.3-1.2-.3 14.8zm-.1 75.5c0 4.7.2 6.6.4 4.2.2-2.3.2-6.1 0-8.5-.2-2.3-.4-.4-.4 4.3z"/><path fill="#550" stroke="#550" stroke-width=".1" d="M575.3 108.7c1.5.2 3.7.2 5 0 1.2-.2 0-.4-2.8-.4-2.7 0-3.8.2-2.2.4zm13 0c2 .2 5.4.2 7.5 0 2-.2.3-.4-3.8-.4s-5.8.2-3.7.4zm20 0c3.7.2 9.7.2 13.5 0 3.7-.2.6-.3-6.8-.3s-10.5.1-6.7.3z"/><path fill="olive" stroke="olive" stroke-width=".1" d="M644.3 108.7c1.5.2 3.9.2 5.5 0 1.5-.2.2-.4-2.8-.4s-4.3.2-2.7.4zm15.5 0c.6.2 1.8.2 2.5 0 .6-.3.1-.5-1.3-.5s-1.9.2-1.2.5z"/><path fill="#d40055" stroke="#d40055" stroke-width=".1" d="M722.8 240.7c1.2.2 3 .2 4 0 .9-.3-.1-.5-2.3-.4-2.2 0-3 .2-1.7.4z"/></svg>